ISO-10303-21;
HEADER;
/* Generated by software containing ST-Developer
 * from STEP Tools, Inc. (www.steptools.com) 
 */

FILE_DESCRIPTION(
/* description */ (''),
/* implementation_level */ '2;1');

FILE_NAME(
/* name */ 'MacroPadCaseTop.step',
/* time_stamp */ '2025-11-23T21:45:09+01:00',
/* author */ (''),
/* organization */ (''),
/* preprocessor_version */ 'ST-DEVELOPER v20.1',
/* originating_system */ 'Autodesk Translation Framework v14.21.0.0',
/* authorisation */ '');

FILE_SCHEMA (('AUTOMOTIVE_DESIGN { 1 0 10303 214 3 1 1 }'));
ENDSEC;

DATA;
#10=MECHANICAL_DESIGN_GEOMETRIC_PRESENTATION_REPRESENTATION('',(#13),#2267);
#11=SHAPE_REPRESENTATION_RELATIONSHIP('SRR','None',#2274,#12);
#12=ADVANCED_BREP_SHAPE_REPRESENTATION('',(#14),#2266);
#13=STYLED_ITEM('',(#2283),#14);
#14=MANIFOLD_SOLID_BREP('Body1',#1343);
#15=FACE_BOUND('',#138,.T.);
#16=FACE_BOUND('',#139,.T.);
#17=FACE_BOUND('',#140,.T.);
#18=FACE_BOUND('',#141,.T.);
#19=FACE_BOUND('',#142,.T.);
#20=FACE_BOUND('',#143,.T.);
#21=FACE_BOUND('',#144,.T.);
#22=FACE_BOUND('',#145,.T.);
#23=FACE_BOUND('',#146,.T.);
#24=FACE_BOUND('',#147,.T.);
#25=FACE_BOUND('',#211,.T.);
#26=FACE_BOUND('',#212,.T.);
#27=FACE_BOUND('',#213,.T.);
#28=FACE_BOUND('',#214,.T.);
#29=FACE_BOUND('',#215,.T.);
#30=FACE_BOUND('',#216,.T.);
#31=FACE_BOUND('',#217,.T.);
#32=FACE_BOUND('',#218,.T.);
#33=FACE_BOUND('',#219,.T.);
#34=FACE_BOUND('',#220,.T.);
#35=PLANE('',#1360);
#36=PLANE('',#1361);
#37=PLANE('',#1395);
#38=PLANE('',#1398);
#39=PLANE('',#1401);
#40=PLANE('',#1404);
#41=PLANE('',#1407);
#42=PLANE('',#1410);
#43=PLANE('',#1413);
#44=PLANE('',#1416);
#45=PLANE('',#1419);
#46=PLANE('',#1422);
#47=PLANE('',#1429);
#48=PLANE('',#1432);
#49=PLANE('',#1435);
#50=PLANE('',#1438);
#51=PLANE('',#1441);
#52=PLANE('',#1444);
#53=PLANE('',#1447);
#54=PLANE('',#1450);
#55=PLANE('',#1457);
#56=PLANE('',#1460);
#57=PLANE('',#1463);
#58=PLANE('',#1466);
#59=PLANE('',#1469);
#60=PLANE('',#1472);
#61=PLANE('',#1475);
#62=PLANE('',#1478);
#63=PLANE('',#1481);
#64=PLANE('',#1482);
#65=PLANE('',#1483);
#66=PLANE('',#1484);
#67=PLANE('',#1485);
#68=PLANE('',#1486);
#69=FACE_OUTER_BOUND('',#135,.T.);
#70=FACE_OUTER_BOUND('',#136,.T.);
#71=FACE_OUTER_BOUND('',#137,.T.);
#72=FACE_OUTER_BOUND('',#148,.T.);
#73=FACE_OUTER_BOUND('',#149,.T.);
#74=FACE_OUTER_BOUND('',#150,.T.);
#75=FACE_OUTER_BOUND('',#151,.T.);
#76=FACE_OUTER_BOUND('',#152,.T.);
#77=FACE_OUTER_BOUND('',#153,.T.);
#78=FACE_OUTER_BOUND('',#154,.T.);
#79=FACE_OUTER_BOUND('',#155,.T.);
#80=FACE_OUTER_BOUND('',#156,.T.);
#81=FACE_OUTER_BOUND('',#157,.T.);
#82=FACE_OUTER_BOUND('',#158,.T.);
#83=FACE_OUTER_BOUND('',#159,.T.);
#84=FACE_OUTER_BOUND('',#160,.T.);
#85=FACE_OUTER_BOUND('',#161,.T.);
#86=FACE_OUTER_BOUND('',#162,.T.);
#87=FACE_OUTER_BOUND('',#163,.T.);
#88=FACE_OUTER_BOUND('',#164,.T.);
#89=FACE_OUTER_BOUND('',#165,.T.);
#90=FACE_OUTER_BOUND('',#166,.T.);
#91=FACE_OUTER_BOUND('',#167,.T.);
#92=FACE_OUTER_BOUND('',#168,.T.);
#93=FACE_OUTER_BOUND('',#169,.T.);
#94=FACE_OUTER_BOUND('',#170,.T.);
#95=FACE_OUTER_BOUND('',#171,.T.);
#96=FACE_OUTER_BOUND('',#172,.T.);
#97=FACE_OUTER_BOUND('',#173,.T.);
#98=FACE_OUTER_BOUND('',#174,.T.);
#99=FACE_OUTER_BOUND('',#175,.T.);
#100=FACE_OUTER_BOUND('',#176,.T.);
#101=FACE_OUTER_BOUND('',#177,.T.);
#102=FACE_OUTER_BOUND('',#178,.T.);
#103=FACE_OUTER_BOUND('',#179,.T.);
#104=FACE_OUTER_BOUND('',#180,.T.);
#105=FACE_OUTER_BOUND('',#181,.T.);
#106=FACE_OUTER_BOUND('',#182,.T.);
#107=FACE_OUTER_BOUND('',#183,.T.);
#108=FACE_OUTER_BOUND('',#184,.T.);
#109=FACE_OUTER_BOUND('',#185,.T.);
#110=FACE_OUTER_BOUND('',#186,.T.);
#111=FACE_OUTER_BOUND('',#187,.T.);
#112=FACE_OUTER_BOUND('',#188,.T.);
#113=FACE_OUTER_BOUND('',#189,.T.);
#114=FACE_OUTER_BOUND('',#190,.T.);
#115=FACE_OUTER_BOUND('',#191,.T.);
#116=FACE_OUTER_BOUND('',#192,.T.);
#117=FACE_OUTER_BOUND('',#193,.T.);
#118=FACE_OUTER_BOUND('',#194,.T.);
#119=FACE_OUTER_BOUND('',#195,.T.);
#120=FACE_OUTER_BOUND('',#196,.T.);
#121=FACE_OUTER_BOUND('',#197,.T.);
#122=FACE_OUTER_BOUND('',#198,.T.);
#123=FACE_OUTER_BOUND('',#199,.T.);
#124=FACE_OUTER_BOUND('',#200,.T.);
#125=FACE_OUTER_BOUND('',#201,.T.);
#126=FACE_OUTER_BOUND('',#202,.T.);
#127=FACE_OUTER_BOUND('',#203,.T.);
#128=FACE_OUTER_BOUND('',#204,.T.);
#129=FACE_OUTER_BOUND('',#205,.T.);
#130=FACE_OUTER_BOUND('',#206,.T.);
#131=FACE_OUTER_BOUND('',#207,.T.);
#132=FACE_OUTER_BOUND('',#208,.T.);
#133=FACE_OUTER_BOUND('',#209,.T.);
#134=FACE_OUTER_BOUND('',#210,.T.);
#135=EDGE_LOOP('',(#861,#862,#863,#864));
#136=EDGE_LOOP('',(#865,#866,#867,#868));
#137=EDGE_LOOP('',(#869,#870,#871,#872,#873,#874,#875,#876,#877,#878,#879,
#880));
#138=EDGE_LOOP('',(#881,#882,#883,#884,#885,#886,#887,#888));
#139=EDGE_LOOP('',(#889,#890,#891,#892,#893,#894,#895,#896));
#140=EDGE_LOOP('',(#897));
#141=EDGE_LOOP('',(#898));
#142=EDGE_LOOP('',(#899,#900,#901,#902,#903,#904,#905,#906));
#143=EDGE_LOOP('',(#907,#908,#909,#910,#911,#912,#913,#914));
#144=EDGE_LOOP('',(#915));
#145=EDGE_LOOP('',(#916));
#146=EDGE_LOOP('',(#917,#918,#919,#920,#921,#922,#923,#924));
#147=EDGE_LOOP('',(#925,#926,#927,#928,#929,#930,#931,#932));
#148=EDGE_LOOP('',(#933,#934,#935,#936));
#149=EDGE_LOOP('',(#937,#938,#939,#940));
#150=EDGE_LOOP('',(#941,#942,#943,#944));
#151=EDGE_LOOP('',(#945,#946,#947,#948));
#152=EDGE_LOOP('',(#949,#950,#951,#952));
#153=EDGE_LOOP('',(#953,#954,#955,#956));
#154=EDGE_LOOP('',(#957,#958,#959,#960));
#155=EDGE_LOOP('',(#961,#962,#963,#964));
#156=EDGE_LOOP('',(#965,#966,#967,#968));
#157=EDGE_LOOP('',(#969,#970,#971,#972));
#158=EDGE_LOOP('',(#973,#974,#975,#976));
#159=EDGE_LOOP('',(#977,#978,#979,#980));
#160=EDGE_LOOP('',(#981,#982,#983,#984));
#161=EDGE_LOOP('',(#985,#986,#987,#988));
#162=EDGE_LOOP('',(#989,#990,#991,#992));
#163=EDGE_LOOP('',(#993,#994,#995,#996));
#164=EDGE_LOOP('',(#997,#998,#999,#1000));
#165=EDGE_LOOP('',(#1001,#1002,#1003,#1004));
#166=EDGE_LOOP('',(#1005,#1006,#1007,#1008));
#167=EDGE_LOOP('',(#1009,#1010,#1011,#1012));
#168=EDGE_LOOP('',(#1013,#1014,#1015,#1016));
#169=EDGE_LOOP('',(#1017,#1018,#1019,#1020));
#170=EDGE_LOOP('',(#1021,#1022,#1023,#1024));
#171=EDGE_LOOP('',(#1025,#1026,#1027,#1028));
#172=EDGE_LOOP('',(#1029,#1030,#1031,#1032));
#173=EDGE_LOOP('',(#1033,#1034,#1035,#1036));
#174=EDGE_LOOP('',(#1037,#1038,#1039,#1040));
#175=EDGE_LOOP('',(#1041,#1042,#1043,#1044));
#176=EDGE_LOOP('',(#1045,#1046,#1047,#1048));
#177=EDGE_LOOP('',(#1049,#1050,#1051,#1052));
#178=EDGE_LOOP('',(#1053,#1054,#1055,#1056));
#179=EDGE_LOOP('',(#1057,#1058,#1059,#1060));
#180=EDGE_LOOP('',(#1061,#1062,#1063,#1064));
#181=EDGE_LOOP('',(#1065,#1066,#1067,#1068));
#182=EDGE_LOOP('',(#1069,#1070,#1071,#1072));
#183=EDGE_LOOP('',(#1073,#1074,#1075,#1076));
#184=EDGE_LOOP('',(#1077,#1078,#1079,#1080));
#185=EDGE_LOOP('',(#1081,#1082,#1083,#1084));
#186=EDGE_LOOP('',(#1085,#1086,#1087,#1088));
#187=EDGE_LOOP('',(#1089,#1090,#1091,#1092));
#188=EDGE_LOOP('',(#1093,#1094,#1095,#1096));
#189=EDGE_LOOP('',(#1097,#1098,#1099,#1100));
#190=EDGE_LOOP('',(#1101,#1102,#1103,#1104));
#191=EDGE_LOOP('',(#1105,#1106,#1107,#1108));
#192=EDGE_LOOP('',(#1109,#1110,#1111,#1112));
#193=EDGE_LOOP('',(#1113,#1114,#1115,#1116));
#194=EDGE_LOOP('',(#1117,#1118,#1119,#1120));
#195=EDGE_LOOP('',(#1121,#1122,#1123,#1124));
#196=EDGE_LOOP('',(#1125,#1126,#1127,#1128));
#197=EDGE_LOOP('',(#1129,#1130,#1131,#1132));
#198=EDGE_LOOP('',(#1133,#1134,#1135,#1136));
#199=EDGE_LOOP('',(#1137,#1138,#1139,#1140));
#200=EDGE_LOOP('',(#1141,#1142,#1143,#1144));
#201=EDGE_LOOP('',(#1145,#1146,#1147,#1148));
#202=EDGE_LOOP('',(#1149,#1150,#1151,#1152));
#203=EDGE_LOOP('',(#1153,#1154,#1155,#1156));
#204=EDGE_LOOP('',(#1157,#1158,#1159,#1160));
#205=EDGE_LOOP('',(#1161,#1162,#1163,#1164));
#206=EDGE_LOOP('',(#1165,#1166,#1167,#1168));
#207=EDGE_LOOP('',(#1169,#1170,#1171,#1172));
#208=EDGE_LOOP('',(#1173,#1174,#1175,#1176));
#209=EDGE_LOOP('',(#1177,#1178,#1179,#1180));
#210=EDGE_LOOP('',(#1181,#1182,#1183,#1184,#1185,#1186,#1187,#1188,#1189,
#1190,#1191,#1192));
#211=EDGE_LOOP('',(#1193,#1194,#1195,#1196,#1197,#1198,#1199,#1200));
#212=EDGE_LOOP('',(#1201,#1202,#1203,#1204,#1205,#1206,#1207,#1208));
#213=EDGE_LOOP('',(#1209));
#214=EDGE_LOOP('',(#1210));
#215=EDGE_LOOP('',(#1211,#1212,#1213,#1214,#1215,#1216,#1217,#1218));
#216=EDGE_LOOP('',(#1219,#1220,#1221,#1222,#1223,#1224,#1225,#1226));
#217=EDGE_LOOP('',(#1227));
#218=EDGE_LOOP('',(#1228));
#219=EDGE_LOOP('',(#1229,#1230,#1231,#1232,#1233,#1234,#1235,#1236));
#220=EDGE_LOOP('',(#1237,#1238,#1239,#1240,#1241,#1242,#1243,#1244));
#221=LINE('',#1883,#349);
#222=LINE('',#1886,#350);
#223=LINE('',#1889,#351);
#224=LINE('',#1891,#352);
#225=LINE('',#1892,#353);
#226=LINE('',#1895,#354);
#227=LINE('',#1897,#355);
#228=LINE('',#1899,#356);
#229=LINE('',#1901,#357);
#230=LINE('',#1903,#358);
#231=LINE('',#1907,#359);
#232=LINE('',#1911,#360);
#233=LINE('',#1917,#361);
#234=LINE('',#1921,#362);
#235=LINE('',#1925,#363);
#236=LINE('',#1928,#364);
#237=LINE('',#1933,#365);
#238=LINE('',#1937,#366);
#239=LINE('',#1941,#367);
#240=LINE('',#1944,#368);
#241=LINE('',#1953,#369);
#242=LINE('',#1957,#370);
#243=LINE('',#1961,#371);
#244=LINE('',#1964,#372);
#245=LINE('',#1969,#373);
#246=LINE('',#1973,#374);
#247=LINE('',#1977,#375);
#248=LINE('',#1980,#376);
#249=LINE('',#1989,#377);
#250=LINE('',#1993,#378);
#251=LINE('',#1997,#379);
#252=LINE('',#2000,#380);
#253=LINE('',#2005,#381);
#254=LINE('',#2009,#382);
#255=LINE('',#2013,#383);
#256=LINE('',#2016,#384);
#257=LINE('',#2020,#385);
#258=LINE('',#2023,#386);
#259=LINE('',#2024,#387);
#260=LINE('',#2028,#388);
#261=LINE('',#2031,#389);
#262=LINE('',#2032,#390);
#263=LINE('',#2036,#391);
#264=LINE('',#2039,#392);
#265=LINE('',#2041,#393);
#266=LINE('',#2042,#394);
#267=LINE('',#2046,#395);
#268=LINE('',#2049,#396);
#269=LINE('',#2050,#397);
#270=LINE('',#2054,#398);
#271=LINE('',#2057,#399);
#272=LINE('',#2058,#400);
#273=LINE('',#2062,#401);
#274=LINE('',#2065,#402);
#275=LINE('',#2066,#403);
#276=LINE('',#2071,#404);
#277=LINE('',#2073,#405);
#278=LINE('',#2074,#406);
#279=LINE('',#2078,#407);
#280=LINE('',#2081,#408);
#281=LINE('',#2082,#409);
#282=LINE('',#2086,#410);
#283=LINE('',#2089,#411);
#284=LINE('',#2090,#412);
#285=LINE('',#2094,#413);
#286=LINE('',#2097,#414);
#287=LINE('',#2098,#415);
#288=LINE('',#2104,#416);
#289=LINE('',#2108,#417);
#290=LINE('',#2111,#418);
#291=LINE('',#2113,#419);
#292=LINE('',#2114,#420);
#293=LINE('',#2118,#421);
#294=LINE('',#2121,#422);
#295=LINE('',#2122,#423);
#296=LINE('',#2126,#424);
#297=LINE('',#2129,#425);
#298=LINE('',#2130,#426);
#299=LINE('',#2134,#427);
#300=LINE('',#2137,#428);
#301=LINE('',#2138,#429);
#302=LINE('',#2143,#430);
#303=LINE('',#2145,#431);
#304=LINE('',#2146,#432);
#305=LINE('',#2150,#433);
#306=LINE('',#2153,#434);
#307=LINE('',#2154,#435);
#308=LINE('',#2158,#436);
#309=LINE('',#2161,#437);
#310=LINE('',#2162,#438);
#311=LINE('',#2166,#439);
#312=LINE('',#2169,#440);
#313=LINE('',#2170,#441);
#314=LINE('',#2176,#442);
#315=LINE('',#2180,#443);
#316=LINE('',#2183,#444);
#317=LINE('',#2185,#445);
#318=LINE('',#2186,#446);
#319=LINE('',#2190,#447);
#320=LINE('',#2193,#448);
#321=LINE('',#2194,#449);
#322=LINE('',#2198,#450);
#323=LINE('',#2201,#451);
#324=LINE('',#2202,#452);
#325=LINE('',#2206,#453);
#326=LINE('',#2209,#454);
#327=LINE('',#2210,#455);
#328=LINE('',#2215,#456);
#329=LINE('',#2217,#457);
#330=LINE('',#2218,#458);
#331=LINE('',#2222,#459);
#332=LINE('',#2225,#460);
#333=LINE('',#2226,#461);
#334=LINE('',#2230,#462);
#335=LINE('',#2233,#463);
#336=LINE('',#2234,#464);
#337=LINE('',#2238,#465);
#338=LINE('',#2241,#466);
#339=LINE('',#2242,#467);
#340=LINE('',#2247,#468);
#341=LINE('',#2249,#469);
#342=LINE('',#2250,#470);
#343=LINE('',#2253,#471);
#344=LINE('',#2254,#472);
#345=LINE('',#2257,#473);
#346=LINE('',#2258,#474);
#347=LINE('',#2260,#475);
#348=LINE('',#2262,#476);
#349=VECTOR('',#1493,10.);
#350=VECTOR('',#1496,10.);
#351=VECTOR('',#1499,10.);
#352=VECTOR('',#1500,10.);
#353=VECTOR('',#1501,10.);
#354=VECTOR('',#1504,10.);
#355=VECTOR('',#1505,10.);
#356=VECTOR('',#1506,10.);
#357=VECTOR('',#1507,10.);
#358=VECTOR('',#1508,10.);
#359=VECTOR('',#1511,10.);
#360=VECTOR('',#1514,10.);
#361=VECTOR('',#1519,10.);
#362=VECTOR('',#1522,10.);
#363=VECTOR('',#1525,10.);
#364=VECTOR('',#1528,10.);
#365=VECTOR('',#1531,10.);
#366=VECTOR('',#1534,10.);
#367=VECTOR('',#1537,10.);
#368=VECTOR('',#1540,10.);
#369=VECTOR('',#1547,10.);
#370=VECTOR('',#1550,10.);
#371=VECTOR('',#1553,10.);
#372=VECTOR('',#1556,10.);
#373=VECTOR('',#1559,10.);
#374=VECTOR('',#1562,10.);
#375=VECTOR('',#1565,10.);
#376=VECTOR('',#1568,10.);
#377=VECTOR('',#1575,10.);
#378=VECTOR('',#1578,10.);
#379=VECTOR('',#1581,10.);
#380=VECTOR('',#1584,10.);
#381=VECTOR('',#1587,10.);
#382=VECTOR('',#1590,10.);
#383=VECTOR('',#1593,10.);
#384=VECTOR('',#1596,10.);
#385=VECTOR('',#1601,10.);
#386=VECTOR('',#1604,10.);
#387=VECTOR('',#1605,10.);
#388=VECTOR('',#1610,10.);
#389=VECTOR('',#1613,10.);
#390=VECTOR('',#1614,10.);
#391=VECTOR('',#1619,10.);
#392=VECTOR('',#1622,10.);
#393=VECTOR('',#1623,10.);
#394=VECTOR('',#1624,10.);
#395=VECTOR('',#1629,10.);
#396=VECTOR('',#1632,10.);
#397=VECTOR('',#1633,10.);
#398=VECTOR('',#1638,10.);
#399=VECTOR('',#1641,10.);
#400=VECTOR('',#1642,10.);
#401=VECTOR('',#1647,10.);
#402=VECTOR('',#1650,10.);
#403=VECTOR('',#1651,10.);
#404=VECTOR('',#1658,10.);
#405=VECTOR('',#1659,10.);
#406=VECTOR('',#1660,10.);
#407=VECTOR('',#1665,10.);
#408=VECTOR('',#1668,10.);
#409=VECTOR('',#1669,10.);
#410=VECTOR('',#1674,10.);
#411=VECTOR('',#1677,10.);
#412=VECTOR('',#1678,10.);
#413=VECTOR('',#1683,10.);
#414=VECTOR('',#1686,10.);
#415=VECTOR('',#1687,10.);
#416=VECTOR('',#1696,1.7);
#417=VECTOR('',#1701,1.7);
#418=VECTOR('',#1704,10.);
#419=VECTOR('',#1705,10.);
#420=VECTOR('',#1706,10.);
#421=VECTOR('',#1711,10.);
#422=VECTOR('',#1714,10.);
#423=VECTOR('',#1715,10.);
#424=VECTOR('',#1720,10.);
#425=VECTOR('',#1723,10.);
#426=VECTOR('',#1724,10.);
#427=VECTOR('',#1729,10.);
#428=VECTOR('',#1732,10.);
#429=VECTOR('',#1733,10.);
#430=VECTOR('',#1740,10.);
#431=VECTOR('',#1741,10.);
#432=VECTOR('',#1742,10.);
#433=VECTOR('',#1747,10.);
#434=VECTOR('',#1750,10.);
#435=VECTOR('',#1751,10.);
#436=VECTOR('',#1756,10.);
#437=VECTOR('',#1759,10.);
#438=VECTOR('',#1760,10.);
#439=VECTOR('',#1765,10.);
#440=VECTOR('',#1768,10.);
#441=VECTOR('',#1769,10.);
#442=VECTOR('',#1778,1.7);
#443=VECTOR('',#1783,1.7);
#444=VECTOR('',#1786,10.);
#445=VECTOR('',#1787,10.);
#446=VECTOR('',#1788,10.);
#447=VECTOR('',#1793,10.);
#448=VECTOR('',#1796,10.);
#449=VECTOR('',#1797,10.);
#450=VECTOR('',#1802,10.);
#451=VECTOR('',#1805,10.);
#452=VECTOR('',#1806,10.);
#453=VECTOR('',#1811,10.);
#454=VECTOR('',#1814,10.);
#455=VECTOR('',#1815,10.);
#456=VECTOR('',#1822,10.);
#457=VECTOR('',#1823,10.);
#458=VECTOR('',#1824,10.);
#459=VECTOR('',#1829,10.);
#460=VECTOR('',#1832,10.);
#461=VECTOR('',#1833,10.);
#462=VECTOR('',#1838,10.);
#463=VECTOR('',#1841,10.);
#464=VECTOR('',#1842,10.);
#465=VECTOR('',#1847,10.);
#466=VECTOR('',#1850,10.);
#467=VECTOR('',#1851,10.);
#468=VECTOR('',#1858,10.);
#469=VECTOR('',#1859,10.);
#470=VECTOR('',#1860,10.);
#471=VECTOR('',#1863,10.);
#472=VECTOR('',#1864,10.);
#473=VECTOR('',#1867,10.);
#474=VECTOR('',#1868,10.);
#475=VECTOR('',#1871,10.);
#476=VECTOR('',#1874,10.);
#477=CIRCLE('',#1358,5.);
#478=CIRCLE('',#1359,5.);
#479=CIRCLE('',#1362,5.);
#480=CIRCLE('',#1363,5.);
#481=CIRCLE('',#1364,5.);
#482=CIRCLE('',#1365,0.499999999999998);
#483=CIRCLE('',#1366,0.5);
#484=CIRCLE('',#1367,0.499999999999998);
#485=CIRCLE('',#1368,0.499999999999998);
#486=CIRCLE('',#1369,0.499999999999998);
#487=CIRCLE('',#1370,0.499999999999998);
#488=CIRCLE('',#1371,0.500000000000003);
#489=CIRCLE('',#1372,0.499999999999998);
#490=CIRCLE('',#1373,1.7);
#491=CIRCLE('',#1374,1.7);
#492=CIRCLE('',#1375,0.499999999999998);
#493=CIRCLE('',#1376,0.5);
#494=CIRCLE('',#1377,0.500000000000003);
#495=CIRCLE('',#1378,0.499999999999998);
#496=CIRCLE('',#1379,0.499999999999998);
#497=CIRCLE('',#1380,0.499999999999998);
#498=CIRCLE('',#1381,0.500000000000003);
#499=CIRCLE('',#1382,0.500000000000003);
#500=CIRCLE('',#1383,1.7);
#501=CIRCLE('',#1384,1.7);
#502=CIRCLE('',#1385,0.499999999999998);
#503=CIRCLE('',#1386,0.499999999999998);
#504=CIRCLE('',#1387,0.499999999999998);
#505=CIRCLE('',#1388,0.500000000000003);
#506=CIRCLE('',#1389,0.499999999999998);
#507=CIRCLE('',#1390,0.499999999999998);
#508=CIRCLE('',#1391,0.499999999999998);
#509=CIRCLE('',#1392,0.499999999999998);
#510=CIRCLE('',#1394,5.);
#511=CIRCLE('',#1397,5.);
#512=CIRCLE('',#1400,5.);
#513=CIRCLE('',#1403,0.499999999999998);
#514=CIRCLE('',#1406,0.499999999999998);
#515=CIRCLE('',#1409,0.499999999999998);
#516=CIRCLE('',#1412,0.499999999999998);
#517=CIRCLE('',#1415,0.499999999999998);
#518=CIRCLE('',#1418,0.499999999999998);
#519=CIRCLE('',#1421,0.500000000000003);
#520=CIRCLE('',#1424,0.499999999999998);
#521=CIRCLE('',#1426,1.7);
#522=CIRCLE('',#1428,1.7);
#523=CIRCLE('',#1431,0.499999999999998);
#524=CIRCLE('',#1434,0.500000000000003);
#525=CIRCLE('',#1437,0.500000000000003);
#526=CIRCLE('',#1440,0.499999999999998);
#527=CIRCLE('',#1443,0.5);
#528=CIRCLE('',#1446,0.500000000000003);
#529=CIRCLE('',#1449,0.499999999999998);
#530=CIRCLE('',#1452,0.499999999999998);
#531=CIRCLE('',#1454,1.7);
#532=CIRCLE('',#1456,1.7);
#533=CIRCLE('',#1459,0.499999999999998);
#534=CIRCLE('',#1462,0.500000000000003);
#535=CIRCLE('',#1465,0.499999999999998);
#536=CIRCLE('',#1468,0.499999999999998);
#537=CIRCLE('',#1471,0.5);
#538=CIRCLE('',#1474,0.499999999999998);
#539=CIRCLE('',#1477,0.499999999999998);
#540=CIRCLE('',#1480,0.499999999999998);
#541=VERTEX_POINT('',#1879);
#542=VERTEX_POINT('',#1880);
#543=VERTEX_POINT('',#1882);
#544=VERTEX_POINT('',#1884);
#545=VERTEX_POINT('',#1888);
#546=VERTEX_POINT('',#1890);
#547=VERTEX_POINT('',#1894);
#548=VERTEX_POINT('',#1896);
#549=VERTEX_POINT('',#1898);
#550=VERTEX_POINT('',#1900);
#551=VERTEX_POINT('',#1902);
#552=VERTEX_POINT('',#1904);
#553=VERTEX_POINT('',#1906);
#554=VERTEX_POINT('',#1908);
#555=VERTEX_POINT('',#1910);
#556=VERTEX_POINT('',#1913);
#557=VERTEX_POINT('',#1914);
#558=VERTEX_POINT('',#1916);
#559=VERTEX_POINT('',#1918);
#560=VERTEX_POINT('',#1920);
#561=VERTEX_POINT('',#1922);
#562=VERTEX_POINT('',#1924);
#563=VERTEX_POINT('',#1926);
#564=VERTEX_POINT('',#1929);
#565=VERTEX_POINT('',#1930);
#566=VERTEX_POINT('',#1932);
#567=VERTEX_POINT('',#1934);
#568=VERTEX_POINT('',#1936);
#569=VERTEX_POINT('',#1938);
#570=VERTEX_POINT('',#1940);
#571=VERTEX_POINT('',#1942);
#572=VERTEX_POINT('',#1945);
#573=VERTEX_POINT('',#1947);
#574=VERTEX_POINT('',#1949);
#575=VERTEX_POINT('',#1950);
#576=VERTEX_POINT('',#1952);
#577=VERTEX_POINT('',#1954);
#578=VERTEX_POINT('',#1956);
#579=VERTEX_POINT('',#1958);
#580=VERTEX_POINT('',#1960);
#581=VERTEX_POINT('',#1962);
#582=VERTEX_POINT('',#1965);
#583=VERTEX_POINT('',#1966);
#584=VERTEX_POINT('',#1968);
#585=VERTEX_POINT('',#1970);
#586=VERTEX_POINT('',#1972);
#587=VERTEX_POINT('',#1974);
#588=VERTEX_POINT('',#1976);
#589=VERTEX_POINT('',#1978);
#590=VERTEX_POINT('',#1981);
#591=VERTEX_POINT('',#1983);
#592=VERTEX_POINT('',#1985);
#593=VERTEX_POINT('',#1986);
#594=VERTEX_POINT('',#1988);
#595=VERTEX_POINT('',#1990);
#596=VERTEX_POINT('',#1992);
#597=VERTEX_POINT('',#1994);
#598=VERTEX_POINT('',#1996);
#599=VERTEX_POINT('',#1998);
#600=VERTEX_POINT('',#2001);
#601=VERTEX_POINT('',#2002);
#602=VERTEX_POINT('',#2004);
#603=VERTEX_POINT('',#2006);
#604=VERTEX_POINT('',#2008);
#605=VERTEX_POINT('',#2010);
#606=VERTEX_POINT('',#2012);
#607=VERTEX_POINT('',#2014);
#608=VERTEX_POINT('',#2018);
#609=VERTEX_POINT('',#2022);
#610=VERTEX_POINT('',#2026);
#611=VERTEX_POINT('',#2030);
#612=VERTEX_POINT('',#2034);
#613=VERTEX_POINT('',#2038);
#614=VERTEX_POINT('',#2040);
#615=VERTEX_POINT('',#2044);
#616=VERTEX_POINT('',#2048);
#617=VERTEX_POINT('',#2052);
#618=VERTEX_POINT('',#2056);
#619=VERTEX_POINT('',#2060);
#620=VERTEX_POINT('',#2064);
#621=VERTEX_POINT('',#2070);
#622=VERTEX_POINT('',#2072);
#623=VERTEX_POINT('',#2076);
#624=VERTEX_POINT('',#2080);
#625=VERTEX_POINT('',#2084);
#626=VERTEX_POINT('',#2088);
#627=VERTEX_POINT('',#2092);
#628=VERTEX_POINT('',#2096);
#629=VERTEX_POINT('',#2102);
#630=VERTEX_POINT('',#2106);
#631=VERTEX_POINT('',#2110);
#632=VERTEX_POINT('',#2112);
#633=VERTEX_POINT('',#2116);
#634=VERTEX_POINT('',#2120);
#635=VERTEX_POINT('',#2124);
#636=VERTEX_POINT('',#2128);
#637=VERTEX_POINT('',#2132);
#638=VERTEX_POINT('',#2136);
#639=VERTEX_POINT('',#2142);
#640=VERTEX_POINT('',#2144);
#641=VERTEX_POINT('',#2148);
#642=VERTEX_POINT('',#2152);
#643=VERTEX_POINT('',#2156);
#644=VERTEX_POINT('',#2160);
#645=VERTEX_POINT('',#2164);
#646=VERTEX_POINT('',#2168);
#647=VERTEX_POINT('',#2174);
#648=VERTEX_POINT('',#2178);
#649=VERTEX_POINT('',#2182);
#650=VERTEX_POINT('',#2184);
#651=VERTEX_POINT('',#2188);
#652=VERTEX_POINT('',#2192);
#653=VERTEX_POINT('',#2196);
#654=VERTEX_POINT('',#2200);
#655=VERTEX_POINT('',#2204);
#656=VERTEX_POINT('',#2208);
#657=VERTEX_POINT('',#2214);
#658=VERTEX_POINT('',#2216);
#659=VERTEX_POINT('',#2220);
#660=VERTEX_POINT('',#2224);
#661=VERTEX_POINT('',#2228);
#662=VERTEX_POINT('',#2232);
#663=VERTEX_POINT('',#2236);
#664=VERTEX_POINT('',#2240);
#665=VERTEX_POINT('',#2246);
#666=VERTEX_POINT('',#2248);
#667=VERTEX_POINT('',#2252);
#668=VERTEX_POINT('',#2256);
#669=EDGE_CURVE('',#541,#542,#477,.T.);
#670=EDGE_CURVE('',#542,#543,#221,.T.);
#671=EDGE_CURVE('',#543,#544,#478,.T.);
#672=EDGE_CURVE('',#544,#541,#222,.T.);
#673=EDGE_CURVE('',#544,#545,#223,.T.);
#674=EDGE_CURVE('',#546,#545,#224,.T.);
#675=EDGE_CURVE('',#541,#546,#225,.T.);
#676=EDGE_CURVE('',#547,#543,#226,.T.);
#677=EDGE_CURVE('',#547,#548,#227,.T.);
#678=EDGE_CURVE('',#548,#549,#228,.T.);
#679=EDGE_CURVE('',#549,#550,#229,.T.);
#680=EDGE_CURVE('',#551,#550,#230,.T.);
#681=EDGE_CURVE('',#552,#551,#479,.T.);
#682=EDGE_CURVE('',#553,#552,#231,.T.);
#683=EDGE_CURVE('',#554,#553,#480,.T.);
#684=EDGE_CURVE('',#555,#554,#232,.T.);
#685=EDGE_CURVE('',#545,#555,#481,.T.);
#686=EDGE_CURVE('',#556,#557,#482,.T.);
#687=EDGE_CURVE('',#558,#556,#233,.T.);
#688=EDGE_CURVE('',#559,#558,#483,.T.);
#689=EDGE_CURVE('',#560,#559,#234,.T.);
#690=EDGE_CURVE('',#561,#560,#484,.T.);
#691=EDGE_CURVE('',#562,#561,#235,.T.);
#692=EDGE_CURVE('',#563,#562,#485,.T.);
#693=EDGE_CURVE('',#557,#563,#236,.T.);
#694=EDGE_CURVE('',#564,#565,#486,.T.);
#695=EDGE_CURVE('',#566,#564,#237,.T.);
#696=EDGE_CURVE('',#567,#566,#487,.T.);
#697=EDGE_CURVE('',#568,#567,#238,.T.);
#698=EDGE_CURVE('',#569,#568,#488,.T.);
#699=EDGE_CURVE('',#570,#569,#239,.T.);
#700=EDGE_CURVE('',#571,#570,#489,.T.);
#701=EDGE_CURVE('',#565,#571,#240,.T.);
#702=EDGE_CURVE('',#572,#572,#490,.T.);
#703=EDGE_CURVE('',#573,#573,#491,.T.);
#704=EDGE_CURVE('',#574,#575,#492,.T.);
#705=EDGE_CURVE('',#576,#574,#241,.T.);
#706=EDGE_CURVE('',#577,#576,#493,.T.);
#707=EDGE_CURVE('',#578,#577,#242,.T.);
#708=EDGE_CURVE('',#579,#578,#494,.T.);
#709=EDGE_CURVE('',#580,#579,#243,.T.);
#710=EDGE_CURVE('',#581,#580,#495,.T.);
#711=EDGE_CURVE('',#575,#581,#244,.T.);
#712=EDGE_CURVE('',#582,#583,#496,.T.);
#713=EDGE_CURVE('',#584,#582,#245,.T.);
#714=EDGE_CURVE('',#585,#584,#497,.T.);
#715=EDGE_CURVE('',#586,#585,#246,.T.);
#716=EDGE_CURVE('',#587,#586,#498,.T.);
#717=EDGE_CURVE('',#588,#587,#247,.T.);
#718=EDGE_CURVE('',#589,#588,#499,.T.);
#719=EDGE_CURVE('',#583,#589,#248,.T.);
#720=EDGE_CURVE('',#590,#590,#500,.T.);
#721=EDGE_CURVE('',#591,#591,#501,.T.);
#722=EDGE_CURVE('',#592,#593,#502,.T.);
#723=EDGE_CURVE('',#594,#592,#249,.T.);
#724=EDGE_CURVE('',#595,#594,#503,.T.);
#725=EDGE_CURVE('',#596,#595,#250,.T.);
#726=EDGE_CURVE('',#597,#596,#504,.T.);
#727=EDGE_CURVE('',#598,#597,#251,.T.);
#728=EDGE_CURVE('',#599,#598,#505,.T.);
#729=EDGE_CURVE('',#593,#599,#252,.T.);
#730=EDGE_CURVE('',#600,#601,#506,.T.);
#731=EDGE_CURVE('',#602,#600,#253,.T.);
#732=EDGE_CURVE('',#603,#602,#507,.T.);
#733=EDGE_CURVE('',#604,#603,#254,.T.);
#734=EDGE_CURVE('',#605,#604,#508,.T.);
#735=EDGE_CURVE('',#606,#605,#255,.T.);
#736=EDGE_CURVE('',#607,#606,#509,.T.);
#737=EDGE_CURVE('',#601,#607,#256,.T.);
#738=EDGE_CURVE('',#608,#546,#510,.T.);
#739=EDGE_CURVE('',#555,#608,#257,.T.);
#740=EDGE_CURVE('',#609,#554,#258,.T.);
#741=EDGE_CURVE('',#608,#609,#259,.T.);
#742=EDGE_CURVE('',#610,#609,#511,.T.);
#743=EDGE_CURVE('',#553,#610,#260,.T.);
#744=EDGE_CURVE('',#611,#552,#261,.T.);
#745=EDGE_CURVE('',#610,#611,#262,.T.);
#746=EDGE_CURVE('',#612,#611,#512,.T.);
#747=EDGE_CURVE('',#551,#612,#263,.T.);
#748=EDGE_CURVE('',#600,#613,#264,.T.);
#749=EDGE_CURVE('',#614,#613,#265,.T.);
#750=EDGE_CURVE('',#602,#614,#266,.T.);
#751=EDGE_CURVE('',#615,#614,#513,.T.);
#752=EDGE_CURVE('',#603,#615,#267,.T.);
#753=EDGE_CURVE('',#616,#615,#268,.T.);
#754=EDGE_CURVE('',#604,#616,#269,.T.);
#755=EDGE_CURVE('',#617,#616,#514,.T.);
#756=EDGE_CURVE('',#605,#617,#270,.T.);
#757=EDGE_CURVE('',#618,#617,#271,.T.);
#758=EDGE_CURVE('',#606,#618,#272,.T.);
#759=EDGE_CURVE('',#619,#618,#515,.T.);
#760=EDGE_CURVE('',#607,#619,#273,.T.);
#761=EDGE_CURVE('',#620,#619,#274,.T.);
#762=EDGE_CURVE('',#601,#620,#275,.T.);
#763=EDGE_CURVE('',#613,#620,#516,.T.);
#764=EDGE_CURVE('',#592,#621,#276,.T.);
#765=EDGE_CURVE('',#622,#621,#277,.T.);
#766=EDGE_CURVE('',#594,#622,#278,.T.);
#767=EDGE_CURVE('',#623,#622,#517,.T.);
#768=EDGE_CURVE('',#595,#623,#279,.T.);
#769=EDGE_CURVE('',#624,#623,#280,.T.);
#770=EDGE_CURVE('',#596,#624,#281,.T.);
#771=EDGE_CURVE('',#625,#624,#518,.T.);
#772=EDGE_CURVE('',#597,#625,#282,.T.);
#773=EDGE_CURVE('',#626,#625,#283,.T.);
#774=EDGE_CURVE('',#598,#626,#284,.T.);
#775=EDGE_CURVE('',#627,#626,#519,.T.);
#776=EDGE_CURVE('',#599,#627,#285,.T.);
#777=EDGE_CURVE('',#628,#627,#286,.T.);
#778=EDGE_CURVE('',#593,#628,#287,.T.);
#779=EDGE_CURVE('',#621,#628,#520,.T.);
#780=EDGE_CURVE('',#629,#629,#521,.T.);
#781=EDGE_CURVE('',#629,#591,#288,.T.);
#782=EDGE_CURVE('',#630,#630,#522,.T.);
#783=EDGE_CURVE('',#630,#590,#289,.T.);
#784=EDGE_CURVE('',#582,#631,#290,.T.);
#785=EDGE_CURVE('',#632,#631,#291,.T.);
#786=EDGE_CURVE('',#584,#632,#292,.T.);
#787=EDGE_CURVE('',#633,#632,#523,.T.);
#788=EDGE_CURVE('',#585,#633,#293,.T.);
#789=EDGE_CURVE('',#634,#633,#294,.T.);
#790=EDGE_CURVE('',#586,#634,#295,.T.);
#791=EDGE_CURVE('',#635,#634,#524,.T.);
#792=EDGE_CURVE('',#587,#635,#296,.T.);
#793=EDGE_CURVE('',#636,#635,#297,.T.);
#794=EDGE_CURVE('',#588,#636,#298,.T.);
#795=EDGE_CURVE('',#637,#636,#525,.T.);
#796=EDGE_CURVE('',#589,#637,#299,.T.);
#797=EDGE_CURVE('',#638,#637,#300,.T.);
#798=EDGE_CURVE('',#583,#638,#301,.T.);
#799=EDGE_CURVE('',#631,#638,#526,.T.);
#800=EDGE_CURVE('',#574,#639,#302,.T.);
#801=EDGE_CURVE('',#640,#639,#303,.T.);
#802=EDGE_CURVE('',#576,#640,#304,.T.);
#803=EDGE_CURVE('',#641,#640,#527,.T.);
#804=EDGE_CURVE('',#577,#641,#305,.T.);
#805=EDGE_CURVE('',#642,#641,#306,.T.);
#806=EDGE_CURVE('',#578,#642,#307,.T.);
#807=EDGE_CURVE('',#643,#642,#528,.T.);
#808=EDGE_CURVE('',#579,#643,#308,.T.);
#809=EDGE_CURVE('',#644,#643,#309,.T.);
#810=EDGE_CURVE('',#580,#644,#310,.T.);
#811=EDGE_CURVE('',#645,#644,#529,.T.);
#812=EDGE_CURVE('',#581,#645,#311,.T.);
#813=EDGE_CURVE('',#646,#645,#312,.T.);
#814=EDGE_CURVE('',#575,#646,#313,.T.);
#815=EDGE_CURVE('',#639,#646,#530,.T.);
#816=EDGE_CURVE('',#647,#647,#531,.T.);
#817=EDGE_CURVE('',#647,#573,#314,.T.);
#818=EDGE_CURVE('',#648,#648,#532,.T.);
#819=EDGE_CURVE('',#648,#572,#315,.T.);
#820=EDGE_CURVE('',#564,#649,#316,.T.);
#821=EDGE_CURVE('',#650,#649,#317,.T.);
#822=EDGE_CURVE('',#566,#650,#318,.T.);
#823=EDGE_CURVE('',#651,#650,#533,.T.);
#824=EDGE_CURVE('',#567,#651,#319,.T.);
#825=EDGE_CURVE('',#652,#651,#320,.T.);
#826=EDGE_CURVE('',#568,#652,#321,.T.);
#827=EDGE_CURVE('',#653,#652,#534,.T.);
#828=EDGE_CURVE('',#569,#653,#322,.T.);
#829=EDGE_CURVE('',#654,#653,#323,.T.);
#830=EDGE_CURVE('',#570,#654,#324,.T.);
#831=EDGE_CURVE('',#655,#654,#535,.T.);
#832=EDGE_CURVE('',#571,#655,#325,.T.);
#833=EDGE_CURVE('',#656,#655,#326,.T.);
#834=EDGE_CURVE('',#565,#656,#327,.T.);
#835=EDGE_CURVE('',#649,#656,#536,.T.);
#836=EDGE_CURVE('',#556,#657,#328,.T.);
#837=EDGE_CURVE('',#658,#657,#329,.T.);
#838=EDGE_CURVE('',#558,#658,#330,.T.);
#839=EDGE_CURVE('',#659,#658,#537,.T.);
#840=EDGE_CURVE('',#559,#659,#331,.T.);
#841=EDGE_CURVE('',#660,#659,#332,.T.);
#842=EDGE_CURVE('',#560,#660,#333,.T.);
#843=EDGE_CURVE('',#661,#660,#538,.T.);
#844=EDGE_CURVE('',#561,#661,#334,.T.);
#845=EDGE_CURVE('',#662,#661,#335,.T.);
#846=EDGE_CURVE('',#562,#662,#336,.T.);
#847=EDGE_CURVE('',#663,#662,#539,.T.);
#848=EDGE_CURVE('',#563,#663,#337,.T.);
#849=EDGE_CURVE('',#664,#663,#338,.T.);
#850=EDGE_CURVE('',#557,#664,#339,.T.);
#851=EDGE_CURVE('',#657,#664,#540,.T.);
#852=EDGE_CURVE('',#547,#665,#340,.T.);
#853=EDGE_CURVE('',#666,#665,#341,.T.);
#854=EDGE_CURVE('',#548,#666,#342,.T.);
#855=EDGE_CURVE('',#667,#666,#343,.T.);
#856=EDGE_CURVE('',#549,#667,#344,.T.);
#857=EDGE_CURVE('',#668,#667,#345,.T.);
#858=EDGE_CURVE('',#550,#668,#346,.T.);
#859=EDGE_CURVE('',#612,#668,#347,.T.);
#860=EDGE_CURVE('',#665,#542,#348,.T.);
#861=ORIENTED_EDGE('',*,*,#669,.T.);
#862=ORIENTED_EDGE('',*,*,#670,.T.);
#863=ORIENTED_EDGE('',*,*,#671,.T.);
#864=ORIENTED_EDGE('',*,*,#672,.T.);
#865=ORIENTED_EDGE('',*,*,#672,.F.);
#866=ORIENTED_EDGE('',*,*,#673,.T.);
#867=ORIENTED_EDGE('',*,*,#674,.F.);
#868=ORIENTED_EDGE('',*,*,#675,.F.);
#869=ORIENTED_EDGE('',*,*,#671,.F.);
#870=ORIENTED_EDGE('',*,*,#676,.F.);
#871=ORIENTED_EDGE('',*,*,#677,.T.);
#872=ORIENTED_EDGE('',*,*,#678,.T.);
#873=ORIENTED_EDGE('',*,*,#679,.T.);
#874=ORIENTED_EDGE('',*,*,#680,.F.);
#875=ORIENTED_EDGE('',*,*,#681,.F.);
#876=ORIENTED_EDGE('',*,*,#682,.F.);
#877=ORIENTED_EDGE('',*,*,#683,.F.);
#878=ORIENTED_EDGE('',*,*,#684,.F.);
#879=ORIENTED_EDGE('',*,*,#685,.F.);
#880=ORIENTED_EDGE('',*,*,#673,.F.);
#881=ORIENTED_EDGE('',*,*,#686,.F.);
#882=ORIENTED_EDGE('',*,*,#687,.F.);
#883=ORIENTED_EDGE('',*,*,#688,.F.);
#884=ORIENTED_EDGE('',*,*,#689,.F.);
#885=ORIENTED_EDGE('',*,*,#690,.F.);
#886=ORIENTED_EDGE('',*,*,#691,.F.);
#887=ORIENTED_EDGE('',*,*,#692,.F.);
#888=ORIENTED_EDGE('',*,*,#693,.F.);
#889=ORIENTED_EDGE('',*,*,#694,.F.);
#890=ORIENTED_EDGE('',*,*,#695,.F.);
#891=ORIENTED_EDGE('',*,*,#696,.F.);
#892=ORIENTED_EDGE('',*,*,#697,.F.);
#893=ORIENTED_EDGE('',*,*,#698,.F.);
#894=ORIENTED_EDGE('',*,*,#699,.F.);
#895=ORIENTED_EDGE('',*,*,#700,.F.);
#896=ORIENTED_EDGE('',*,*,#701,.F.);
#897=ORIENTED_EDGE('',*,*,#702,.F.);
#898=ORIENTED_EDGE('',*,*,#703,.F.);
#899=ORIENTED_EDGE('',*,*,#704,.F.);
#900=ORIENTED_EDGE('',*,*,#705,.F.);
#901=ORIENTED_EDGE('',*,*,#706,.F.);
#902=ORIENTED_EDGE('',*,*,#707,.F.);
#903=ORIENTED_EDGE('',*,*,#708,.F.);
#904=ORIENTED_EDGE('',*,*,#709,.F.);
#905=ORIENTED_EDGE('',*,*,#710,.F.);
#906=ORIENTED_EDGE('',*,*,#711,.F.);
#907=ORIENTED_EDGE('',*,*,#712,.F.);
#908=ORIENTED_EDGE('',*,*,#713,.F.);
#909=ORIENTED_EDGE('',*,*,#714,.F.);
#910=ORIENTED_EDGE('',*,*,#715,.F.);
#911=ORIENTED_EDGE('',*,*,#716,.F.);
#912=ORIENTED_EDGE('',*,*,#717,.F.);
#913=ORIENTED_EDGE('',*,*,#718,.F.);
#914=ORIENTED_EDGE('',*,*,#719,.F.);
#915=ORIENTED_EDGE('',*,*,#720,.F.);
#916=ORIENTED_EDGE('',*,*,#721,.F.);
#917=ORIENTED_EDGE('',*,*,#722,.F.);
#918=ORIENTED_EDGE('',*,*,#723,.F.);
#919=ORIENTED_EDGE('',*,*,#724,.F.);
#920=ORIENTED_EDGE('',*,*,#725,.F.);
#921=ORIENTED_EDGE('',*,*,#726,.F.);
#922=ORIENTED_EDGE('',*,*,#727,.F.);
#923=ORIENTED_EDGE('',*,*,#728,.F.);
#924=ORIENTED_EDGE('',*,*,#729,.F.);
#925=ORIENTED_EDGE('',*,*,#730,.F.);
#926=ORIENTED_EDGE('',*,*,#731,.F.);
#927=ORIENTED_EDGE('',*,*,#732,.F.);
#928=ORIENTED_EDGE('',*,*,#733,.F.);
#929=ORIENTED_EDGE('',*,*,#734,.F.);
#930=ORIENTED_EDGE('',*,*,#735,.F.);
#931=ORIENTED_EDGE('',*,*,#736,.F.);
#932=ORIENTED_EDGE('',*,*,#737,.F.);
#933=ORIENTED_EDGE('',*,*,#738,.T.);
#934=ORIENTED_EDGE('',*,*,#674,.T.);
#935=ORIENTED_EDGE('',*,*,#685,.T.);
#936=ORIENTED_EDGE('',*,*,#739,.T.);
#937=ORIENTED_EDGE('',*,*,#739,.F.);
#938=ORIENTED_EDGE('',*,*,#684,.T.);
#939=ORIENTED_EDGE('',*,*,#740,.F.);
#940=ORIENTED_EDGE('',*,*,#741,.F.);
#941=ORIENTED_EDGE('',*,*,#742,.T.);
#942=ORIENTED_EDGE('',*,*,#740,.T.);
#943=ORIENTED_EDGE('',*,*,#683,.T.);
#944=ORIENTED_EDGE('',*,*,#743,.T.);
#945=ORIENTED_EDGE('',*,*,#743,.F.);
#946=ORIENTED_EDGE('',*,*,#682,.T.);
#947=ORIENTED_EDGE('',*,*,#744,.F.);
#948=ORIENTED_EDGE('',*,*,#745,.F.);
#949=ORIENTED_EDGE('',*,*,#746,.T.);
#950=ORIENTED_EDGE('',*,*,#744,.T.);
#951=ORIENTED_EDGE('',*,*,#681,.T.);
#952=ORIENTED_EDGE('',*,*,#747,.T.);
#953=ORIENTED_EDGE('',*,*,#731,.T.);
#954=ORIENTED_EDGE('',*,*,#748,.T.);
#955=ORIENTED_EDGE('',*,*,#749,.F.);
#956=ORIENTED_EDGE('',*,*,#750,.F.);
#957=ORIENTED_EDGE('',*,*,#732,.T.);
#958=ORIENTED_EDGE('',*,*,#750,.T.);
#959=ORIENTED_EDGE('',*,*,#751,.F.);
#960=ORIENTED_EDGE('',*,*,#752,.F.);
#961=ORIENTED_EDGE('',*,*,#733,.T.);
#962=ORIENTED_EDGE('',*,*,#752,.T.);
#963=ORIENTED_EDGE('',*,*,#753,.F.);
#964=ORIENTED_EDGE('',*,*,#754,.F.);
#965=ORIENTED_EDGE('',*,*,#734,.T.);
#966=ORIENTED_EDGE('',*,*,#754,.T.);
#967=ORIENTED_EDGE('',*,*,#755,.F.);
#968=ORIENTED_EDGE('',*,*,#756,.F.);
#969=ORIENTED_EDGE('',*,*,#735,.T.);
#970=ORIENTED_EDGE('',*,*,#756,.T.);
#971=ORIENTED_EDGE('',*,*,#757,.F.);
#972=ORIENTED_EDGE('',*,*,#758,.F.);
#973=ORIENTED_EDGE('',*,*,#736,.T.);
#974=ORIENTED_EDGE('',*,*,#758,.T.);
#975=ORIENTED_EDGE('',*,*,#759,.F.);
#976=ORIENTED_EDGE('',*,*,#760,.F.);
#977=ORIENTED_EDGE('',*,*,#737,.T.);
#978=ORIENTED_EDGE('',*,*,#760,.T.);
#979=ORIENTED_EDGE('',*,*,#761,.F.);
#980=ORIENTED_EDGE('',*,*,#762,.F.);
#981=ORIENTED_EDGE('',*,*,#730,.T.);
#982=ORIENTED_EDGE('',*,*,#762,.T.);
#983=ORIENTED_EDGE('',*,*,#763,.F.);
#984=ORIENTED_EDGE('',*,*,#748,.F.);
#985=ORIENTED_EDGE('',*,*,#723,.T.);
#986=ORIENTED_EDGE('',*,*,#764,.T.);
#987=ORIENTED_EDGE('',*,*,#765,.F.);
#988=ORIENTED_EDGE('',*,*,#766,.F.);
#989=ORIENTED_EDGE('',*,*,#724,.T.);
#990=ORIENTED_EDGE('',*,*,#766,.T.);
#991=ORIENTED_EDGE('',*,*,#767,.F.);
#992=ORIENTED_EDGE('',*,*,#768,.F.);
#993=ORIENTED_EDGE('',*,*,#725,.T.);
#994=ORIENTED_EDGE('',*,*,#768,.T.);
#995=ORIENTED_EDGE('',*,*,#769,.F.);
#996=ORIENTED_EDGE('',*,*,#770,.F.);
#997=ORIENTED_EDGE('',*,*,#726,.T.);
#998=ORIENTED_EDGE('',*,*,#770,.T.);
#999=ORIENTED_EDGE('',*,*,#771,.F.);
#1000=ORIENTED_EDGE('',*,*,#772,.F.);
#1001=ORIENTED_EDGE('',*,*,#727,.T.);
#1002=ORIENTED_EDGE('',*,*,#772,.T.);
#1003=ORIENTED_EDGE('',*,*,#773,.F.);
#1004=ORIENTED_EDGE('',*,*,#774,.F.);
#1005=ORIENTED_EDGE('',*,*,#728,.T.);
#1006=ORIENTED_EDGE('',*,*,#774,.T.);
#1007=ORIENTED_EDGE('',*,*,#775,.F.);
#1008=ORIENTED_EDGE('',*,*,#776,.F.);
#1009=ORIENTED_EDGE('',*,*,#729,.T.);
#1010=ORIENTED_EDGE('',*,*,#776,.T.);
#1011=ORIENTED_EDGE('',*,*,#777,.F.);
#1012=ORIENTED_EDGE('',*,*,#778,.F.);
#1013=ORIENTED_EDGE('',*,*,#722,.T.);
#1014=ORIENTED_EDGE('',*,*,#778,.T.);
#1015=ORIENTED_EDGE('',*,*,#779,.F.);
#1016=ORIENTED_EDGE('',*,*,#764,.F.);
#1017=ORIENTED_EDGE('',*,*,#780,.F.);
#1018=ORIENTED_EDGE('',*,*,#781,.T.);
#1019=ORIENTED_EDGE('',*,*,#721,.T.);
#1020=ORIENTED_EDGE('',*,*,#781,.F.);
#1021=ORIENTED_EDGE('',*,*,#782,.F.);
#1022=ORIENTED_EDGE('',*,*,#783,.T.);
#1023=ORIENTED_EDGE('',*,*,#720,.T.);
#1024=ORIENTED_EDGE('',*,*,#783,.F.);
#1025=ORIENTED_EDGE('',*,*,#713,.T.);
#1026=ORIENTED_EDGE('',*,*,#784,.T.);
#1027=ORIENTED_EDGE('',*,*,#785,.F.);
#1028=ORIENTED_EDGE('',*,*,#786,.F.);
#1029=ORIENTED_EDGE('',*,*,#714,.T.);
#1030=ORIENTED_EDGE('',*,*,#786,.T.);
#1031=ORIENTED_EDGE('',*,*,#787,.F.);
#1032=ORIENTED_EDGE('',*,*,#788,.F.);
#1033=ORIENTED_EDGE('',*,*,#715,.T.);
#1034=ORIENTED_EDGE('',*,*,#788,.T.);
#1035=ORIENTED_EDGE('',*,*,#789,.F.);
#1036=ORIENTED_EDGE('',*,*,#790,.F.);
#1037=ORIENTED_EDGE('',*,*,#716,.T.);
#1038=ORIENTED_EDGE('',*,*,#790,.T.);
#1039=ORIENTED_EDGE('',*,*,#791,.F.);
#1040=ORIENTED_EDGE('',*,*,#792,.F.);
#1041=ORIENTED_EDGE('',*,*,#717,.T.);
#1042=ORIENTED_EDGE('',*,*,#792,.T.);
#1043=ORIENTED_EDGE('',*,*,#793,.F.);
#1044=ORIENTED_EDGE('',*,*,#794,.F.);
#1045=ORIENTED_EDGE('',*,*,#718,.T.);
#1046=ORIENTED_EDGE('',*,*,#794,.T.);
#1047=ORIENTED_EDGE('',*,*,#795,.F.);
#1048=ORIENTED_EDGE('',*,*,#796,.F.);
#1049=ORIENTED_EDGE('',*,*,#719,.T.);
#1050=ORIENTED_EDGE('',*,*,#796,.T.);
#1051=ORIENTED_EDGE('',*,*,#797,.F.);
#1052=ORIENTED_EDGE('',*,*,#798,.F.);
#1053=ORIENTED_EDGE('',*,*,#712,.T.);
#1054=ORIENTED_EDGE('',*,*,#798,.T.);
#1055=ORIENTED_EDGE('',*,*,#799,.F.);
#1056=ORIENTED_EDGE('',*,*,#784,.F.);
#1057=ORIENTED_EDGE('',*,*,#705,.T.);
#1058=ORIENTED_EDGE('',*,*,#800,.T.);
#1059=ORIENTED_EDGE('',*,*,#801,.F.);
#1060=ORIENTED_EDGE('',*,*,#802,.F.);
#1061=ORIENTED_EDGE('',*,*,#706,.T.);
#1062=ORIENTED_EDGE('',*,*,#802,.T.);
#1063=ORIENTED_EDGE('',*,*,#803,.F.);
#1064=ORIENTED_EDGE('',*,*,#804,.F.);
#1065=ORIENTED_EDGE('',*,*,#707,.T.);
#1066=ORIENTED_EDGE('',*,*,#804,.T.);
#1067=ORIENTED_EDGE('',*,*,#805,.F.);
#1068=ORIENTED_EDGE('',*,*,#806,.F.);
#1069=ORIENTED_EDGE('',*,*,#708,.T.);
#1070=ORIENTED_EDGE('',*,*,#806,.T.);
#1071=ORIENTED_EDGE('',*,*,#807,.F.);
#1072=ORIENTED_EDGE('',*,*,#808,.F.);
#1073=ORIENTED_EDGE('',*,*,#709,.T.);
#1074=ORIENTED_EDGE('',*,*,#808,.T.);
#1075=ORIENTED_EDGE('',*,*,#809,.F.);
#1076=ORIENTED_EDGE('',*,*,#810,.F.);
#1077=ORIENTED_EDGE('',*,*,#710,.T.);
#1078=ORIENTED_EDGE('',*,*,#810,.T.);
#1079=ORIENTED_EDGE('',*,*,#811,.F.);
#1080=ORIENTED_EDGE('',*,*,#812,.F.);
#1081=ORIENTED_EDGE('',*,*,#711,.T.);
#1082=ORIENTED_EDGE('',*,*,#812,.T.);
#1083=ORIENTED_EDGE('',*,*,#813,.F.);
#1084=ORIENTED_EDGE('',*,*,#814,.F.);
#1085=ORIENTED_EDGE('',*,*,#704,.T.);
#1086=ORIENTED_EDGE('',*,*,#814,.T.);
#1087=ORIENTED_EDGE('',*,*,#815,.F.);
#1088=ORIENTED_EDGE('',*,*,#800,.F.);
#1089=ORIENTED_EDGE('',*,*,#816,.F.);
#1090=ORIENTED_EDGE('',*,*,#817,.T.);
#1091=ORIENTED_EDGE('',*,*,#703,.T.);
#1092=ORIENTED_EDGE('',*,*,#817,.F.);
#1093=ORIENTED_EDGE('',*,*,#818,.F.);
#1094=ORIENTED_EDGE('',*,*,#819,.T.);
#1095=ORIENTED_EDGE('',*,*,#702,.T.);
#1096=ORIENTED_EDGE('',*,*,#819,.F.);
#1097=ORIENTED_EDGE('',*,*,#695,.T.);
#1098=ORIENTED_EDGE('',*,*,#820,.T.);
#1099=ORIENTED_EDGE('',*,*,#821,.F.);
#1100=ORIENTED_EDGE('',*,*,#822,.F.);
#1101=ORIENTED_EDGE('',*,*,#696,.T.);
#1102=ORIENTED_EDGE('',*,*,#822,.T.);
#1103=ORIENTED_EDGE('',*,*,#823,.F.);
#1104=ORIENTED_EDGE('',*,*,#824,.F.);
#1105=ORIENTED_EDGE('',*,*,#697,.T.);
#1106=ORIENTED_EDGE('',*,*,#824,.T.);
#1107=ORIENTED_EDGE('',*,*,#825,.F.);
#1108=ORIENTED_EDGE('',*,*,#826,.F.);
#1109=ORIENTED_EDGE('',*,*,#698,.T.);
#1110=ORIENTED_EDGE('',*,*,#826,.T.);
#1111=ORIENTED_EDGE('',*,*,#827,.F.);
#1112=ORIENTED_EDGE('',*,*,#828,.F.);
#1113=ORIENTED_EDGE('',*,*,#699,.T.);
#1114=ORIENTED_EDGE('',*,*,#828,.T.);
#1115=ORIENTED_EDGE('',*,*,#829,.F.);
#1116=ORIENTED_EDGE('',*,*,#830,.F.);
#1117=ORIENTED_EDGE('',*,*,#700,.T.);
#1118=ORIENTED_EDGE('',*,*,#830,.T.);
#1119=ORIENTED_EDGE('',*,*,#831,.F.);
#1120=ORIENTED_EDGE('',*,*,#832,.F.);
#1121=ORIENTED_EDGE('',*,*,#701,.T.);
#1122=ORIENTED_EDGE('',*,*,#832,.T.);
#1123=ORIENTED_EDGE('',*,*,#833,.F.);
#1124=ORIENTED_EDGE('',*,*,#834,.F.);
#1125=ORIENTED_EDGE('',*,*,#694,.T.);
#1126=ORIENTED_EDGE('',*,*,#834,.T.);
#1127=ORIENTED_EDGE('',*,*,#835,.F.);
#1128=ORIENTED_EDGE('',*,*,#820,.F.);
#1129=ORIENTED_EDGE('',*,*,#687,.T.);
#1130=ORIENTED_EDGE('',*,*,#836,.T.);
#1131=ORIENTED_EDGE('',*,*,#837,.F.);
#1132=ORIENTED_EDGE('',*,*,#838,.F.);
#1133=ORIENTED_EDGE('',*,*,#688,.T.);
#1134=ORIENTED_EDGE('',*,*,#838,.T.);
#1135=ORIENTED_EDGE('',*,*,#839,.F.);
#1136=ORIENTED_EDGE('',*,*,#840,.F.);
#1137=ORIENTED_EDGE('',*,*,#689,.T.);
#1138=ORIENTED_EDGE('',*,*,#840,.T.);
#1139=ORIENTED_EDGE('',*,*,#841,.F.);
#1140=ORIENTED_EDGE('',*,*,#842,.F.);
#1141=ORIENTED_EDGE('',*,*,#690,.T.);
#1142=ORIENTED_EDGE('',*,*,#842,.T.);
#1143=ORIENTED_EDGE('',*,*,#843,.F.);
#1144=ORIENTED_EDGE('',*,*,#844,.F.);
#1145=ORIENTED_EDGE('',*,*,#691,.T.);
#1146=ORIENTED_EDGE('',*,*,#844,.T.);
#1147=ORIENTED_EDGE('',*,*,#845,.F.);
#1148=ORIENTED_EDGE('',*,*,#846,.F.);
#1149=ORIENTED_EDGE('',*,*,#692,.T.);
#1150=ORIENTED_EDGE('',*,*,#846,.T.);
#1151=ORIENTED_EDGE('',*,*,#847,.F.);
#1152=ORIENTED_EDGE('',*,*,#848,.F.);
#1153=ORIENTED_EDGE('',*,*,#693,.T.);
#1154=ORIENTED_EDGE('',*,*,#848,.T.);
#1155=ORIENTED_EDGE('',*,*,#849,.F.);
#1156=ORIENTED_EDGE('',*,*,#850,.F.);
#1157=ORIENTED_EDGE('',*,*,#686,.T.);
#1158=ORIENTED_EDGE('',*,*,#850,.T.);
#1159=ORIENTED_EDGE('',*,*,#851,.F.);
#1160=ORIENTED_EDGE('',*,*,#836,.F.);
#1161=ORIENTED_EDGE('',*,*,#677,.F.);
#1162=ORIENTED_EDGE('',*,*,#852,.T.);
#1163=ORIENTED_EDGE('',*,*,#853,.F.);
#1164=ORIENTED_EDGE('',*,*,#854,.F.);
#1165=ORIENTED_EDGE('',*,*,#678,.F.);
#1166=ORIENTED_EDGE('',*,*,#854,.T.);
#1167=ORIENTED_EDGE('',*,*,#855,.F.);
#1168=ORIENTED_EDGE('',*,*,#856,.F.);
#1169=ORIENTED_EDGE('',*,*,#679,.F.);
#1170=ORIENTED_EDGE('',*,*,#856,.T.);
#1171=ORIENTED_EDGE('',*,*,#857,.F.);
#1172=ORIENTED_EDGE('',*,*,#858,.F.);
#1173=ORIENTED_EDGE('',*,*,#747,.F.);
#1174=ORIENTED_EDGE('',*,*,#680,.T.);
#1175=ORIENTED_EDGE('',*,*,#858,.T.);
#1176=ORIENTED_EDGE('',*,*,#859,.F.);
#1177=ORIENTED_EDGE('',*,*,#670,.F.);
#1178=ORIENTED_EDGE('',*,*,#860,.F.);
#1179=ORIENTED_EDGE('',*,*,#852,.F.);
#1180=ORIENTED_EDGE('',*,*,#676,.T.);
#1181=ORIENTED_EDGE('',*,*,#669,.F.);
#1182=ORIENTED_EDGE('',*,*,#675,.T.);
#1183=ORIENTED_EDGE('',*,*,#738,.F.);
#1184=ORIENTED_EDGE('',*,*,#741,.T.);
#1185=ORIENTED_EDGE('',*,*,#742,.F.);
#1186=ORIENTED_EDGE('',*,*,#745,.T.);
#1187=ORIENTED_EDGE('',*,*,#746,.F.);
#1188=ORIENTED_EDGE('',*,*,#859,.T.);
#1189=ORIENTED_EDGE('',*,*,#857,.T.);
#1190=ORIENTED_EDGE('',*,*,#855,.T.);
#1191=ORIENTED_EDGE('',*,*,#853,.T.);
#1192=ORIENTED_EDGE('',*,*,#860,.T.);
#1193=ORIENTED_EDGE('',*,*,#851,.T.);
#1194=ORIENTED_EDGE('',*,*,#849,.T.);
#1195=ORIENTED_EDGE('',*,*,#847,.T.);
#1196=ORIENTED_EDGE('',*,*,#845,.T.);
#1197=ORIENTED_EDGE('',*,*,#843,.T.);
#1198=ORIENTED_EDGE('',*,*,#841,.T.);
#1199=ORIENTED_EDGE('',*,*,#839,.T.);
#1200=ORIENTED_EDGE('',*,*,#837,.T.);
#1201=ORIENTED_EDGE('',*,*,#835,.T.);
#1202=ORIENTED_EDGE('',*,*,#833,.T.);
#1203=ORIENTED_EDGE('',*,*,#831,.T.);
#1204=ORIENTED_EDGE('',*,*,#829,.T.);
#1205=ORIENTED_EDGE('',*,*,#827,.T.);
#1206=ORIENTED_EDGE('',*,*,#825,.T.);
#1207=ORIENTED_EDGE('',*,*,#823,.T.);
#1208=ORIENTED_EDGE('',*,*,#821,.T.);
#1209=ORIENTED_EDGE('',*,*,#818,.T.);
#1210=ORIENTED_EDGE('',*,*,#816,.T.);
#1211=ORIENTED_EDGE('',*,*,#815,.T.);
#1212=ORIENTED_EDGE('',*,*,#813,.T.);
#1213=ORIENTED_EDGE('',*,*,#811,.T.);
#1214=ORIENTED_EDGE('',*,*,#809,.T.);
#1215=ORIENTED_EDGE('',*,*,#807,.T.);
#1216=ORIENTED_EDGE('',*,*,#805,.T.);
#1217=ORIENTED_EDGE('',*,*,#803,.T.);
#1218=ORIENTED_EDGE('',*,*,#801,.T.);
#1219=ORIENTED_EDGE('',*,*,#799,.T.);
#1220=ORIENTED_EDGE('',*,*,#797,.T.);
#1221=ORIENTED_EDGE('',*,*,#795,.T.);
#1222=ORIENTED_EDGE('',*,*,#793,.T.);
#1223=ORIENTED_EDGE('',*,*,#791,.T.);
#1224=ORIENTED_EDGE('',*,*,#789,.T.);
#1225=ORIENTED_EDGE('',*,*,#787,.T.);
#1226=ORIENTED_EDGE('',*,*,#785,.T.);
#1227=ORIENTED_EDGE('',*,*,#782,.T.);
#1228=ORIENTED_EDGE('',*,*,#780,.T.);
#1229=ORIENTED_EDGE('',*,*,#779,.T.);
#1230=ORIENTED_EDGE('',*,*,#777,.T.);
#1231=ORIENTED_EDGE('',*,*,#775,.T.);
#1232=ORIENTED_EDGE('',*,*,#773,.T.);
#1233=ORIENTED_EDGE('',*,*,#771,.T.);
#1234=ORIENTED_EDGE('',*,*,#769,.T.);
#1235=ORIENTED_EDGE('',*,*,#767,.T.);
#1236=ORIENTED_EDGE('',*,*,#765,.T.);
#1237=ORIENTED_EDGE('',*,*,#763,.T.);
#1238=ORIENTED_EDGE('',*,*,#761,.T.);
#1239=ORIENTED_EDGE('',*,*,#759,.T.);
#1240=ORIENTED_EDGE('',*,*,#757,.T.);
#1241=ORIENTED_EDGE('',*,*,#755,.T.);
#1242=ORIENTED_EDGE('',*,*,#753,.T.);
#1243=ORIENTED_EDGE('',*,*,#751,.T.);
#1244=ORIENTED_EDGE('',*,*,#749,.T.);
#1245=CYLINDRICAL_SURFACE('',#1357,5.);
#1246=CYLINDRICAL_SURFACE('',#1393,5.);
#1247=CYLINDRICAL_SURFACE('',#1396,5.);
#1248=CYLINDRICAL_SURFACE('',#1399,5.);
#1249=CYLINDRICAL_SURFACE('',#1402,0.499999999999998);
#1250=CYLINDRICAL_SURFACE('',#1405,0.499999999999998);
#1251=CYLINDRICAL_SURFACE('',#1408,0.499999999999998);
#1252=CYLINDRICAL_SURFACE('',#1411,0.499999999999998);
#1253=CYLINDRICAL_SURFACE('',#1414,0.499999999999998);
#1254=CYLINDRICAL_SURFACE('',#1417,0.499999999999998);
#1255=CYLINDRICAL_SURFACE('',#1420,0.500000000000003);
#1256=CYLINDRICAL_SURFACE('',#1423,0.499999999999998);
#1257=CYLINDRICAL_SURFACE('',#1425,1.7);
#1258=CYLINDRICAL_SURFACE('',#1427,1.7);
#1259=CYLINDRICAL_SURFACE('',#1430,0.499999999999998);
#1260=CYLINDRICAL_SURFACE('',#1433,0.500000000000003);
#1261=CYLINDRICAL_SURFACE('',#1436,0.500000000000003);
#1262=CYLINDRICAL_SURFACE('',#1439,0.499999999999998);
#1263=CYLINDRICAL_SURFACE('',#1442,0.5);
#1264=CYLINDRICAL_SURFACE('',#1445,0.500000000000003);
#1265=CYLINDRICAL_SURFACE('',#1448,0.499999999999998);
#1266=CYLINDRICAL_SURFACE('',#1451,0.499999999999998);
#1267=CYLINDRICAL_SURFACE('',#1453,1.7);
#1268=CYLINDRICAL_SURFACE('',#1455,1.7);
#1269=CYLINDRICAL_SURFACE('',#1458,0.499999999999998);
#1270=CYLINDRICAL_SURFACE('',#1461,0.500000000000003);
#1271=CYLINDRICAL_SURFACE('',#1464,0.499999999999998);
#1272=CYLINDRICAL_SURFACE('',#1467,0.499999999999998);
#1273=CYLINDRICAL_SURFACE('',#1470,0.5);
#1274=CYLINDRICAL_SURFACE('',#1473,0.499999999999998);
#1275=CYLINDRICAL_SURFACE('',#1476,0.499999999999998);
#1276=CYLINDRICAL_SURFACE('',#1479,0.499999999999998);
#1277=ADVANCED_FACE('',(#69),#1245,.T.);
#1278=ADVANCED_FACE('',(#70),#35,.T.);
#1279=ADVANCED_FACE('',(#71,#15,#16,#17,#18,#19,#20,#21,#22,#23,#24),#36,
 .F.);
#1280=ADVANCED_FACE('',(#72),#1246,.T.);
#1281=ADVANCED_FACE('',(#73),#37,.T.);
#1282=ADVANCED_FACE('',(#74),#1247,.T.);
#1283=ADVANCED_FACE('',(#75),#38,.T.);
#1284=ADVANCED_FACE('',(#76),#1248,.T.);
#1285=ADVANCED_FACE('',(#77),#39,.T.);
#1286=ADVANCED_FACE('',(#78),#1249,.F.);
#1287=ADVANCED_FACE('',(#79),#40,.T.);
#1288=ADVANCED_FACE('',(#80),#1250,.F.);
#1289=ADVANCED_FACE('',(#81),#41,.T.);
#1290=ADVANCED_FACE('',(#82),#1251,.F.);
#1291=ADVANCED_FACE('',(#83),#42,.T.);
#1292=ADVANCED_FACE('',(#84),#1252,.F.);
#1293=ADVANCED_FACE('',(#85),#43,.T.);
#1294=ADVANCED_FACE('',(#86),#1253,.F.);
#1295=ADVANCED_FACE('',(#87),#44,.T.);
#1296=ADVANCED_FACE('',(#88),#1254,.F.);
#1297=ADVANCED_FACE('',(#89),#45,.T.);
#1298=ADVANCED_FACE('',(#90),#1255,.F.);
#1299=ADVANCED_FACE('',(#91),#46,.T.);
#1300=ADVANCED_FACE('',(#92),#1256,.F.);
#1301=ADVANCED_FACE('',(#93),#1257,.F.);
#1302=ADVANCED_FACE('',(#94),#1258,.F.);
#1303=ADVANCED_FACE('',(#95),#47,.T.);
#1304=ADVANCED_FACE('',(#96),#1259,.F.);
#1305=ADVANCED_FACE('',(#97),#48,.T.);
#1306=ADVANCED_FACE('',(#98),#1260,.F.);
#1307=ADVANCED_FACE('',(#99),#49,.T.);
#1308=ADVANCED_FACE('',(#100),#1261,.F.);
#1309=ADVANCED_FACE('',(#101),#50,.T.);
#1310=ADVANCED_FACE('',(#102),#1262,.F.);
#1311=ADVANCED_FACE('',(#103),#51,.T.);
#1312=ADVANCED_FACE('',(#104),#1263,.F.);
#1313=ADVANCED_FACE('',(#105),#52,.T.);
#1314=ADVANCED_FACE('',(#106),#1264,.F.);
#1315=ADVANCED_FACE('',(#107),#53,.T.);
#1316=ADVANCED_FACE('',(#108),#1265,.F.);
#1317=ADVANCED_FACE('',(#109),#54,.T.);
#1318=ADVANCED_FACE('',(#110),#1266,.F.);
#1319=ADVANCED_FACE('',(#111),#1267,.F.);
#1320=ADVANCED_FACE('',(#112),#1268,.F.);
#1321=ADVANCED_FACE('',(#113),#55,.T.);
#1322=ADVANCED_FACE('',(#114),#1269,.F.);
#1323=ADVANCED_FACE('',(#115),#56,.T.);
#1324=ADVANCED_FACE('',(#116),#1270,.F.);
#1325=ADVANCED_FACE('',(#117),#57,.T.);
#1326=ADVANCED_FACE('',(#118),#1271,.F.);
#1327=ADVANCED_FACE('',(#119),#58,.T.);
#1328=ADVANCED_FACE('',(#120),#1272,.F.);
#1329=ADVANCED_FACE('',(#121),#59,.T.);
#1330=ADVANCED_FACE('',(#122),#1273,.F.);
#1331=ADVANCED_FACE('',(#123),#60,.T.);
#1332=ADVANCED_FACE('',(#124),#1274,.F.);
#1333=ADVANCED_FACE('',(#125),#61,.T.);
#1334=ADVANCED_FACE('',(#126),#1275,.F.);
#1335=ADVANCED_FACE('',(#127),#62,.T.);
#1336=ADVANCED_FACE('',(#128),#1276,.F.);
#1337=ADVANCED_FACE('',(#129),#63,.T.);
#1338=ADVANCED_FACE('',(#130),#64,.T.);
#1339=ADVANCED_FACE('',(#131),#65,.T.);
#1340=ADVANCED_FACE('',(#132),#66,.T.);
#1341=ADVANCED_FACE('',(#133),#67,.T.);
#1342=ADVANCED_FACE('',(#134,#25,#26,#27,#28,#29,#30,#31,#32,#33,#34),#68,
 .T.);
#1343=CLOSED_SHELL('',(#1277,#1278,#1279,#1280,#1281,#1282,#1283,#1284,
#1285,#1286,#1287,#1288,#1289,#1290,#1291,#1292,#1293,#1294,#1295,#1296,
#1297,#1298,#1299,#1300,#1301,#1302,#1303,#1304,#1305,#1306,#1307,#1308,
#1309,#1310,#1311,#1312,#1313,#1314,#1315,#1316,#1317,#1318,#1319,#1320,
#1321,#1322,#1323,#1324,#1325,#1326,#1327,#1328,#1329,#1330,#1331,#1332,
#1333,#1334,#1335,#1336,#1337,#1338,#1339,#1340,#1341,#1342));
#1344=DERIVED_UNIT_ELEMENT(#1346,1.);
#1345=DERIVED_UNIT_ELEMENT(#2269,-3.);
#1346=(
MASS_UNIT()
NAMED_UNIT(*)
SI_UNIT(.KILO.,.GRAM.)
);
#1347=DERIVED_UNIT((#1344,#1345));
#1348=MEASURE_REPRESENTATION_ITEM('density measure',
POSITIVE_RATIO_MEASURE(7850.),#1347);
#1349=PROPERTY_DEFINITION_REPRESENTATION(#1354,#1351);
#1350=PROPERTY_DEFINITION_REPRESENTATION(#1355,#1352);
#1351=REPRESENTATION('material name',(#1353),#2266);
#1352=REPRESENTATION('density',(#1348),#2266);
#1353=DESCRIPTIVE_REPRESENTATION_ITEM('Steel','Steel');
#1354=PROPERTY_DEFINITION('material property','material name',#2276);
#1355=PROPERTY_DEFINITION('material property','density of part',#2276);
#1356=AXIS2_PLACEMENT_3D('',#1877,#1487,#1488);
#1357=AXIS2_PLACEMENT_3D('',#1878,#1489,#1490);
#1358=AXIS2_PLACEMENT_3D('',#1881,#1491,#1492);
#1359=AXIS2_PLACEMENT_3D('',#1885,#1494,#1495);
#1360=AXIS2_PLACEMENT_3D('',#1887,#1497,#1498);
#1361=AXIS2_PLACEMENT_3D('',#1893,#1502,#1503);
#1362=AXIS2_PLACEMENT_3D('',#1905,#1509,#1510);
#1363=AXIS2_PLACEMENT_3D('',#1909,#1512,#1513);
#1364=AXIS2_PLACEMENT_3D('',#1912,#1515,#1516);
#1365=AXIS2_PLACEMENT_3D('',#1915,#1517,#1518);
#1366=AXIS2_PLACEMENT_3D('',#1919,#1520,#1521);
#1367=AXIS2_PLACEMENT_3D('',#1923,#1523,#1524);
#1368=AXIS2_PLACEMENT_3D('',#1927,#1526,#1527);
#1369=AXIS2_PLACEMENT_3D('',#1931,#1529,#1530);
#1370=AXIS2_PLACEMENT_3D('',#1935,#1532,#1533);
#1371=AXIS2_PLACEMENT_3D('',#1939,#1535,#1536);
#1372=AXIS2_PLACEMENT_3D('',#1943,#1538,#1539);
#1373=AXIS2_PLACEMENT_3D('',#1946,#1541,#1542);
#1374=AXIS2_PLACEMENT_3D('',#1948,#1543,#1544);
#1375=AXIS2_PLACEMENT_3D('',#1951,#1545,#1546);
#1376=AXIS2_PLACEMENT_3D('',#1955,#1548,#1549);
#1377=AXIS2_PLACEMENT_3D('',#1959,#1551,#1552);
#1378=AXIS2_PLACEMENT_3D('',#1963,#1554,#1555);
#1379=AXIS2_PLACEMENT_3D('',#1967,#1557,#1558);
#1380=AXIS2_PLACEMENT_3D('',#1971,#1560,#1561);
#1381=AXIS2_PLACEMENT_3D('',#1975,#1563,#1564);
#1382=AXIS2_PLACEMENT_3D('',#1979,#1566,#1567);
#1383=AXIS2_PLACEMENT_3D('',#1982,#1569,#1570);
#1384=AXIS2_PLACEMENT_3D('',#1984,#1571,#1572);
#1385=AXIS2_PLACEMENT_3D('',#1987,#1573,#1574);
#1386=AXIS2_PLACEMENT_3D('',#1991,#1576,#1577);
#1387=AXIS2_PLACEMENT_3D('',#1995,#1579,#1580);
#1388=AXIS2_PLACEMENT_3D('',#1999,#1582,#1583);
#1389=AXIS2_PLACEMENT_3D('',#2003,#1585,#1586);
#1390=AXIS2_PLACEMENT_3D('',#2007,#1588,#1589);
#1391=AXIS2_PLACEMENT_3D('',#2011,#1591,#1592);
#1392=AXIS2_PLACEMENT_3D('',#2015,#1594,#1595);
#1393=AXIS2_PLACEMENT_3D('',#2017,#1597,#1598);
#1394=AXIS2_PLACEMENT_3D('',#2019,#1599,#1600);
#1395=AXIS2_PLACEMENT_3D('',#2021,#1602,#1603);
#1396=AXIS2_PLACEMENT_3D('',#2025,#1606,#1607);
#1397=AXIS2_PLACEMENT_3D('',#2027,#1608,#1609);
#1398=AXIS2_PLACEMENT_3D('',#2029,#1611,#1612);
#1399=AXIS2_PLACEMENT_3D('',#2033,#1615,#1616);
#1400=AXIS2_PLACEMENT_3D('',#2035,#1617,#1618);
#1401=AXIS2_PLACEMENT_3D('',#2037,#1620,#1621);
#1402=AXIS2_PLACEMENT_3D('',#2043,#1625,#1626);
#1403=AXIS2_PLACEMENT_3D('',#2045,#1627,#1628);
#1404=AXIS2_PLACEMENT_3D('',#2047,#1630,#1631);
#1405=AXIS2_PLACEMENT_3D('',#2051,#1634,#1635);
#1406=AXIS2_PLACEMENT_3D('',#2053,#1636,#1637);
#1407=AXIS2_PLACEMENT_3D('',#2055,#1639,#1640);
#1408=AXIS2_PLACEMENT_3D('',#2059,#1643,#1644);
#1409=AXIS2_PLACEMENT_3D('',#2061,#1645,#1646);
#1410=AXIS2_PLACEMENT_3D('',#2063,#1648,#1649);
#1411=AXIS2_PLACEMENT_3D('',#2067,#1652,#1653);
#1412=AXIS2_PLACEMENT_3D('',#2068,#1654,#1655);
#1413=AXIS2_PLACEMENT_3D('',#2069,#1656,#1657);
#1414=AXIS2_PLACEMENT_3D('',#2075,#1661,#1662);
#1415=AXIS2_PLACEMENT_3D('',#2077,#1663,#1664);
#1416=AXIS2_PLACEMENT_3D('',#2079,#1666,#1667);
#1417=AXIS2_PLACEMENT_3D('',#2083,#1670,#1671);
#1418=AXIS2_PLACEMENT_3D('',#2085,#1672,#1673);
#1419=AXIS2_PLACEMENT_3D('',#2087,#1675,#1676);
#1420=AXIS2_PLACEMENT_3D('',#2091,#1679,#1680);
#1421=AXIS2_PLACEMENT_3D('',#2093,#1681,#1682);
#1422=AXIS2_PLACEMENT_3D('',#2095,#1684,#1685);
#1423=AXIS2_PLACEMENT_3D('',#2099,#1688,#1689);
#1424=AXIS2_PLACEMENT_3D('',#2100,#1690,#1691);
#1425=AXIS2_PLACEMENT_3D('',#2101,#1692,#1693);
#1426=AXIS2_PLACEMENT_3D('',#2103,#1694,#1695);
#1427=AXIS2_PLACEMENT_3D('',#2105,#1697,#1698);
#1428=AXIS2_PLACEMENT_3D('',#2107,#1699,#1700);
#1429=AXIS2_PLACEMENT_3D('',#2109,#1702,#1703);
#1430=AXIS2_PLACEMENT_3D('',#2115,#1707,#1708);
#1431=AXIS2_PLACEMENT_3D('',#2117,#1709,#1710);
#1432=AXIS2_PLACEMENT_3D('',#2119,#1712,#1713);
#1433=AXIS2_PLACEMENT_3D('',#2123,#1716,#1717);
#1434=AXIS2_PLACEMENT_3D('',#2125,#1718,#1719);
#1435=AXIS2_PLACEMENT_3D('',#2127,#1721,#1722);
#1436=AXIS2_PLACEMENT_3D('',#2131,#1725,#1726);
#1437=AXIS2_PLACEMENT_3D('',#2133,#1727,#1728);
#1438=AXIS2_PLACEMENT_3D('',#2135,#1730,#1731);
#1439=AXIS2_PLACEMENT_3D('',#2139,#1734,#1735);
#1440=AXIS2_PLACEMENT_3D('',#2140,#1736,#1737);
#1441=AXIS2_PLACEMENT_3D('',#2141,#1738,#1739);
#1442=AXIS2_PLACEMENT_3D('',#2147,#1743,#1744);
#1443=AXIS2_PLACEMENT_3D('',#2149,#1745,#1746);
#1444=AXIS2_PLACEMENT_3D('',#2151,#1748,#1749);
#1445=AXIS2_PLACEMENT_3D('',#2155,#1752,#1753);
#1446=AXIS2_PLACEMENT_3D('',#2157,#1754,#1755);
#1447=AXIS2_PLACEMENT_3D('',#2159,#1757,#1758);
#1448=AXIS2_PLACEMENT_3D('',#2163,#1761,#1762);
#1449=AXIS2_PLACEMENT_3D('',#2165,#1763,#1764);
#1450=AXIS2_PLACEMENT_3D('',#2167,#1766,#1767);
#1451=AXIS2_PLACEMENT_3D('',#2171,#1770,#1771);
#1452=AXIS2_PLACEMENT_3D('',#2172,#1772,#1773);
#1453=AXIS2_PLACEMENT_3D('',#2173,#1774,#1775);
#1454=AXIS2_PLACEMENT_3D('',#2175,#1776,#1777);
#1455=AXIS2_PLACEMENT_3D('',#2177,#1779,#1780);
#1456=AXIS2_PLACEMENT_3D('',#2179,#1781,#1782);
#1457=AXIS2_PLACEMENT_3D('',#2181,#1784,#1785);
#1458=AXIS2_PLACEMENT_3D('',#2187,#1789,#1790);
#1459=AXIS2_PLACEMENT_3D('',#2189,#1791,#1792);
#1460=AXIS2_PLACEMENT_3D('',#2191,#1794,#1795);
#1461=AXIS2_PLACEMENT_3D('',#2195,#1798,#1799);
#1462=AXIS2_PLACEMENT_3D('',#2197,#1800,#1801);
#1463=AXIS2_PLACEMENT_3D('',#2199,#1803,#1804);
#1464=AXIS2_PLACEMENT_3D('',#2203,#1807,#1808);
#1465=AXIS2_PLACEMENT_3D('',#2205,#1809,#1810);
#1466=AXIS2_PLACEMENT_3D('',#2207,#1812,#1813);
#1467=AXIS2_PLACEMENT_3D('',#2211,#1816,#1817);
#1468=AXIS2_PLACEMENT_3D('',#2212,#1818,#1819);
#1469=AXIS2_PLACEMENT_3D('',#2213,#1820,#1821);
#1470=AXIS2_PLACEMENT_3D('',#2219,#1825,#1826);
#1471=AXIS2_PLACEMENT_3D('',#2221,#1827,#1828);
#1472=AXIS2_PLACEMENT_3D('',#2223,#1830,#1831);
#1473=AXIS2_PLACEMENT_3D('',#2227,#1834,#1835);
#1474=AXIS2_PLACEMENT_3D('',#2229,#1836,#1837);
#1475=AXIS2_PLACEMENT_3D('',#2231,#1839,#1840);
#1476=AXIS2_PLACEMENT_3D('',#2235,#1843,#1844);
#1477=AXIS2_PLACEMENT_3D('',#2237,#1845,#1846);
#1478=AXIS2_PLACEMENT_3D('',#2239,#1848,#1849);
#1479=AXIS2_PLACEMENT_3D('',#2243,#1852,#1853);
#1480=AXIS2_PLACEMENT_3D('',#2244,#1854,#1855);
#1481=AXIS2_PLACEMENT_3D('',#2245,#1856,#1857);
#1482=AXIS2_PLACEMENT_3D('',#2251,#1861,#1862);
#1483=AXIS2_PLACEMENT_3D('',#2255,#1865,#1866);
#1484=AXIS2_PLACEMENT_3D('',#2259,#1869,#1870);
#1485=AXIS2_PLACEMENT_3D('',#2261,#1872,#1873);
#1486=AXIS2_PLACEMENT_3D('',#2263,#1875,#1876);
#1487=DIRECTION('axis',(0.,0.,1.));
#1488=DIRECTION('refdir',(1.,0.,0.));
#1489=DIRECTION('center_axis',(0.,0.,1.));
#1490=DIRECTION('ref_axis',(0.707106781186547,-0.707106781186547,0.));
#1491=DIRECTION('center_axis',(0.,0.,-1.));
#1492=DIRECTION('ref_axis',(0.707106781186547,-0.707106781186547,0.));
#1493=DIRECTION('',(0.,0.,-1.));
#1494=DIRECTION('center_axis',(0.,0.,1.));
#1495=DIRECTION('ref_axis',(0.707106781186547,-0.707106781186547,0.));
#1496=DIRECTION('',(0.,0.,1.));
#1497=DIRECTION('center_axis',(1.,0.,0.));
#1498=DIRECTION('ref_axis',(0.,1.,0.));
#1499=DIRECTION('',(0.,1.,0.));
#1500=DIRECTION('',(0.,0.,-1.));
#1501=DIRECTION('',(0.,1.,0.));
#1502=DIRECTION('center_axis',(0.,0.,1.));
#1503=DIRECTION('ref_axis',(1.,0.,0.));
#1504=DIRECTION('',(1.,0.,0.));
#1505=DIRECTION('',(0.,1.,0.));
#1506=DIRECTION('',(-1.,0.,0.));
#1507=DIRECTION('',(0.,-1.,0.));
#1508=DIRECTION('',(1.,0.,0.));
#1509=DIRECTION('center_axis',(0.,0.,1.));
#1510=DIRECTION('ref_axis',(-0.707106781186547,-0.707106781186547,0.));
#1511=DIRECTION('',(0.,-1.,0.));
#1512=DIRECTION('center_axis',(0.,0.,1.));
#1513=DIRECTION('ref_axis',(-0.707106781186547,0.707106781186548,0.));
#1514=DIRECTION('',(-1.,0.,0.));
#1515=DIRECTION('center_axis',(0.,0.,1.));
#1516=DIRECTION('ref_axis',(0.707106781186547,0.707106781186547,0.));
#1517=DIRECTION('center_axis',(0.,0.,-1.));
#1518=DIRECTION('ref_axis',(0.,1.,0.));
#1519=DIRECTION('',(0.,1.,0.));
#1520=DIRECTION('center_axis',(0.,0.,-1.));
#1521=DIRECTION('ref_axis',(-1.,0.,0.));
#1522=DIRECTION('',(-1.,0.,0.));
#1523=DIRECTION('center_axis',(0.,0.,-1.));
#1524=DIRECTION('ref_axis',(0.,-1.,0.));
#1525=DIRECTION('',(0.,-1.,0.));
#1526=DIRECTION('center_axis',(0.,0.,-1.));
#1527=DIRECTION('ref_axis',(1.,0.,0.));
#1528=DIRECTION('',(1.,0.,0.));
#1529=DIRECTION('center_axis',(0.,0.,-1.));
#1530=DIRECTION('ref_axis',(0.,1.,0.));
#1531=DIRECTION('',(0.,1.,0.));
#1532=DIRECTION('center_axis',(0.,0.,-1.));
#1533=DIRECTION('ref_axis',(-1.,0.,0.));
#1534=DIRECTION('',(-1.,0.,0.));
#1535=DIRECTION('center_axis',(0.,0.,-1.));
#1536=DIRECTION('ref_axis',(0.,-1.,0.));
#1537=DIRECTION('',(0.,-1.,0.));
#1538=DIRECTION('center_axis',(0.,0.,-1.));
#1539=DIRECTION('ref_axis',(1.,0.,0.));
#1540=DIRECTION('',(1.,0.,0.));
#1541=DIRECTION('center_axis',(0.,0.,-1.));
#1542=DIRECTION('ref_axis',(1.,0.,0.));
#1543=DIRECTION('center_axis',(0.,0.,-1.));
#1544=DIRECTION('ref_axis',(1.,0.,0.));
#1545=DIRECTION('center_axis',(0.,0.,-1.));
#1546=DIRECTION('ref_axis',(0.,1.,0.));
#1547=DIRECTION('',(0.,1.,0.));
#1548=DIRECTION('center_axis',(0.,0.,-1.));
#1549=DIRECTION('ref_axis',(-1.,0.,0.));
#1550=DIRECTION('',(-1.,0.,0.));
#1551=DIRECTION('center_axis',(0.,0.,-1.));
#1552=DIRECTION('ref_axis',(0.,-1.,0.));
#1553=DIRECTION('',(0.,-1.,0.));
#1554=DIRECTION('center_axis',(0.,0.,-1.));
#1555=DIRECTION('ref_axis',(1.,0.,0.));
#1556=DIRECTION('',(1.,0.,0.));
#1557=DIRECTION('center_axis',(0.,0.,-1.));
#1558=DIRECTION('ref_axis',(0.,1.,0.));
#1559=DIRECTION('',(0.,1.,0.));
#1560=DIRECTION('center_axis',(0.,0.,-1.));
#1561=DIRECTION('ref_axis',(-1.,0.,0.));
#1562=DIRECTION('',(-1.,0.,0.));
#1563=DIRECTION('center_axis',(0.,0.,-1.));
#1564=DIRECTION('ref_axis',(0.,-1.,0.));
#1565=DIRECTION('',(0.,-1.,0.));
#1566=DIRECTION('center_axis',(0.,0.,-1.));
#1567=DIRECTION('ref_axis',(1.,0.,0.));
#1568=DIRECTION('',(1.,0.,0.));
#1569=DIRECTION('center_axis',(0.,0.,-1.));
#1570=DIRECTION('ref_axis',(1.,0.,0.));
#1571=DIRECTION('center_axis',(0.,0.,-1.));
#1572=DIRECTION('ref_axis',(1.,0.,0.));
#1573=DIRECTION('center_axis',(0.,0.,-1.));
#1574=DIRECTION('ref_axis',(0.,1.,0.));
#1575=DIRECTION('',(0.,1.,0.));
#1576=DIRECTION('center_axis',(0.,0.,-1.));
#1577=DIRECTION('ref_axis',(-1.,0.,0.));
#1578=DIRECTION('',(-1.,0.,0.));
#1579=DIRECTION('center_axis',(0.,0.,-1.));
#1580=DIRECTION('ref_axis',(0.,-1.,0.));
#1581=DIRECTION('',(0.,-1.,0.));
#1582=DIRECTION('center_axis',(0.,0.,-1.));
#1583=DIRECTION('ref_axis',(1.,0.,0.));
#1584=DIRECTION('',(1.,0.,0.));
#1585=DIRECTION('center_axis',(0.,0.,-1.));
#1586=DIRECTION('ref_axis',(0.,1.,0.));
#1587=DIRECTION('',(0.,1.,0.));
#1588=DIRECTION('center_axis',(0.,0.,-1.));
#1589=DIRECTION('ref_axis',(-1.,0.,0.));
#1590=DIRECTION('',(-1.,0.,0.));
#1591=DIRECTION('center_axis',(0.,0.,-1.));
#1592=DIRECTION('ref_axis',(0.,-1.,0.));
#1593=DIRECTION('',(0.,-1.,0.));
#1594=DIRECTION('center_axis',(0.,0.,-1.));
#1595=DIRECTION('ref_axis',(1.,0.,0.));
#1596=DIRECTION('',(1.,0.,0.));
#1597=DIRECTION('center_axis',(0.,0.,1.));
#1598=DIRECTION('ref_axis',(0.707106781186547,0.707106781186547,0.));
#1599=DIRECTION('center_axis',(0.,0.,-1.));
#1600=DIRECTION('ref_axis',(0.707106781186547,0.707106781186547,0.));
#1601=DIRECTION('',(0.,0.,1.));
#1602=DIRECTION('center_axis',(0.,1.,0.));
#1603=DIRECTION('ref_axis',(-1.,0.,0.));
#1604=DIRECTION('',(0.,0.,-1.));
#1605=DIRECTION('',(-1.,0.,0.));
#1606=DIRECTION('center_axis',(0.,0.,1.));
#1607=DIRECTION('ref_axis',(-0.707106781186547,0.707106781186548,0.));
#1608=DIRECTION('center_axis',(0.,0.,-1.));
#1609=DIRECTION('ref_axis',(-0.707106781186547,0.707106781186548,0.));
#1610=DIRECTION('',(0.,0.,1.));
#1611=DIRECTION('center_axis',(-1.,0.,0.));
#1612=DIRECTION('ref_axis',(0.,-1.,0.));
#1613=DIRECTION('',(0.,0.,-1.));
#1614=DIRECTION('',(0.,-1.,0.));
#1615=DIRECTION('center_axis',(0.,0.,1.));
#1616=DIRECTION('ref_axis',(-0.707106781186547,-0.707106781186547,0.));
#1617=DIRECTION('center_axis',(0.,0.,-1.));
#1618=DIRECTION('ref_axis',(-0.707106781186547,-0.707106781186547,0.));
#1619=DIRECTION('',(0.,0.,1.));
#1620=DIRECTION('center_axis',(1.,0.,0.));
#1621=DIRECTION('ref_axis',(0.,1.,0.));
#1622=DIRECTION('',(0.,0.,1.));
#1623=DIRECTION('',(0.,1.,0.));
#1624=DIRECTION('',(0.,0.,1.));
#1625=DIRECTION('center_axis',(0.,0.,1.));
#1626=DIRECTION('ref_axis',(-1.,0.,0.));
#1627=DIRECTION('center_axis',(0.,0.,-1.));
#1628=DIRECTION('ref_axis',(-1.,0.,0.));
#1629=DIRECTION('',(0.,0.,1.));
#1630=DIRECTION('center_axis',(0.,1.,0.));
#1631=DIRECTION('ref_axis',(-1.,0.,0.));
#1632=DIRECTION('',(-1.,0.,0.));
#1633=DIRECTION('',(0.,0.,1.));
#1634=DIRECTION('center_axis',(0.,0.,1.));
#1635=DIRECTION('ref_axis',(0.,-1.,0.));
#1636=DIRECTION('center_axis',(0.,0.,-1.));
#1637=DIRECTION('ref_axis',(0.,-1.,0.));
#1638=DIRECTION('',(0.,0.,1.));
#1639=DIRECTION('center_axis',(-1.,0.,0.));
#1640=DIRECTION('ref_axis',(0.,-1.,0.));
#1641=DIRECTION('',(0.,-1.,0.));
#1642=DIRECTION('',(0.,0.,1.));
#1643=DIRECTION('center_axis',(0.,0.,1.));
#1644=DIRECTION('ref_axis',(1.,0.,0.));
#1645=DIRECTION('center_axis',(0.,0.,-1.));
#1646=DIRECTION('ref_axis',(1.,0.,0.));
#1647=DIRECTION('',(0.,0.,1.));
#1648=DIRECTION('center_axis',(0.,-1.,0.));
#1649=DIRECTION('ref_axis',(1.,0.,0.));
#1650=DIRECTION('',(1.,0.,0.));
#1651=DIRECTION('',(0.,0.,1.));
#1652=DIRECTION('center_axis',(0.,0.,1.));
#1653=DIRECTION('ref_axis',(0.,1.,0.));
#1654=DIRECTION('center_axis',(0.,0.,-1.));
#1655=DIRECTION('ref_axis',(0.,1.,0.));
#1656=DIRECTION('center_axis',(1.,0.,0.));
#1657=DIRECTION('ref_axis',(0.,1.,0.));
#1658=DIRECTION('',(0.,0.,1.));
#1659=DIRECTION('',(0.,1.,0.));
#1660=DIRECTION('',(0.,0.,1.));
#1661=DIRECTION('center_axis',(0.,0.,1.));
#1662=DIRECTION('ref_axis',(-1.,0.,0.));
#1663=DIRECTION('center_axis',(0.,0.,-1.));
#1664=DIRECTION('ref_axis',(-1.,0.,0.));
#1665=DIRECTION('',(0.,0.,1.));
#1666=DIRECTION('center_axis',(0.,1.,0.));
#1667=DIRECTION('ref_axis',(-1.,0.,0.));
#1668=DIRECTION('',(-1.,0.,0.));
#1669=DIRECTION('',(0.,0.,1.));
#1670=DIRECTION('center_axis',(0.,0.,1.));
#1671=DIRECTION('ref_axis',(0.,-1.,0.));
#1672=DIRECTION('center_axis',(0.,0.,-1.));
#1673=DIRECTION('ref_axis',(0.,-1.,0.));
#1674=DIRECTION('',(0.,0.,1.));
#1675=DIRECTION('center_axis',(-1.,0.,0.));
#1676=DIRECTION('ref_axis',(0.,-1.,0.));
#1677=DIRECTION('',(0.,-1.,0.));
#1678=DIRECTION('',(0.,0.,1.));
#1679=DIRECTION('center_axis',(0.,0.,1.));
#1680=DIRECTION('ref_axis',(1.,0.,0.));
#1681=DIRECTION('center_axis',(0.,0.,-1.));
#1682=DIRECTION('ref_axis',(1.,0.,0.));
#1683=DIRECTION('',(0.,0.,1.));
#1684=DIRECTION('center_axis',(0.,-1.,0.));
#1685=DIRECTION('ref_axis',(1.,0.,0.));
#1686=DIRECTION('',(1.,0.,0.));
#1687=DIRECTION('',(0.,0.,1.));
#1688=DIRECTION('center_axis',(0.,0.,1.));
#1689=DIRECTION('ref_axis',(0.,1.,0.));
#1690=DIRECTION('center_axis',(0.,0.,-1.));
#1691=DIRECTION('ref_axis',(0.,1.,0.));
#1692=DIRECTION('center_axis',(0.,0.,1.));
#1693=DIRECTION('ref_axis',(1.,0.,0.));
#1694=DIRECTION('center_axis',(0.,0.,-1.));
#1695=DIRECTION('ref_axis',(1.,0.,0.));
#1696=DIRECTION('',(0.,0.,-1.));
#1697=DIRECTION('center_axis',(0.,0.,1.));
#1698=DIRECTION('ref_axis',(1.,0.,0.));
#1699=DIRECTION('center_axis',(0.,0.,-1.));
#1700=DIRECTION('ref_axis',(1.,0.,0.));
#1701=DIRECTION('',(0.,0.,-1.));
#1702=DIRECTION('center_axis',(1.,0.,0.));
#1703=DIRECTION('ref_axis',(0.,1.,0.));
#1704=DIRECTION('',(0.,0.,1.));
#1705=DIRECTION('',(0.,1.,0.));
#1706=DIRECTION('',(0.,0.,1.));
#1707=DIRECTION('center_axis',(0.,0.,1.));
#1708=DIRECTION('ref_axis',(-1.,0.,0.));
#1709=DIRECTION('center_axis',(0.,0.,-1.));
#1710=DIRECTION('ref_axis',(-1.,0.,0.));
#1711=DIRECTION('',(0.,0.,1.));
#1712=DIRECTION('center_axis',(0.,1.,0.));
#1713=DIRECTION('ref_axis',(-1.,0.,0.));
#1714=DIRECTION('',(-1.,0.,0.));
#1715=DIRECTION('',(0.,0.,1.));
#1716=DIRECTION('center_axis',(0.,0.,1.));
#1717=DIRECTION('ref_axis',(0.,-1.,0.));
#1718=DIRECTION('center_axis',(0.,0.,-1.));
#1719=DIRECTION('ref_axis',(0.,-1.,0.));
#1720=DIRECTION('',(0.,0.,1.));
#1721=DIRECTION('center_axis',(-1.,0.,0.));
#1722=DIRECTION('ref_axis',(0.,-1.,0.));
#1723=DIRECTION('',(0.,-1.,0.));
#1724=DIRECTION('',(0.,0.,1.));
#1725=DIRECTION('center_axis',(0.,0.,1.));
#1726=DIRECTION('ref_axis',(1.,0.,0.));
#1727=DIRECTION('center_axis',(0.,0.,-1.));
#1728=DIRECTION('ref_axis',(1.,0.,0.));
#1729=DIRECTION('',(0.,0.,1.));
#1730=DIRECTION('center_axis',(0.,-1.,0.));
#1731=DIRECTION('ref_axis',(1.,0.,0.));
#1732=DIRECTION('',(1.,0.,0.));
#1733=DIRECTION('',(0.,0.,1.));
#1734=DIRECTION('center_axis',(0.,0.,1.));
#1735=DIRECTION('ref_axis',(0.,1.,0.));
#1736=DIRECTION('center_axis',(0.,0.,-1.));
#1737=DIRECTION('ref_axis',(0.,1.,0.));
#1738=DIRECTION('center_axis',(1.,0.,0.));
#1739=DIRECTION('ref_axis',(0.,1.,0.));
#1740=DIRECTION('',(0.,0.,1.));
#1741=DIRECTION('',(0.,1.,0.));
#1742=DIRECTION('',(0.,0.,1.));
#1743=DIRECTION('center_axis',(0.,0.,1.));
#1744=DIRECTION('ref_axis',(-1.,0.,0.));
#1745=DIRECTION('center_axis',(0.,0.,-1.));
#1746=DIRECTION('ref_axis',(-1.,0.,0.));
#1747=DIRECTION('',(0.,0.,1.));
#1748=DIRECTION('center_axis',(0.,1.,0.));
#1749=DIRECTION('ref_axis',(-1.,0.,0.));
#1750=DIRECTION('',(-1.,0.,0.));
#1751=DIRECTION('',(0.,0.,1.));
#1752=DIRECTION('center_axis',(0.,0.,1.));
#1753=DIRECTION('ref_axis',(0.,-1.,0.));
#1754=DIRECTION('center_axis',(0.,0.,-1.));
#1755=DIRECTION('ref_axis',(0.,-1.,0.));
#1756=DIRECTION('',(0.,0.,1.));
#1757=DIRECTION('center_axis',(-1.,0.,0.));
#1758=DIRECTION('ref_axis',(0.,-1.,0.));
#1759=DIRECTION('',(0.,-1.,0.));
#1760=DIRECTION('',(0.,0.,1.));
#1761=DIRECTION('center_axis',(0.,0.,1.));
#1762=DIRECTION('ref_axis',(1.,0.,0.));
#1763=DIRECTION('center_axis',(0.,0.,-1.));
#1764=DIRECTION('ref_axis',(1.,0.,0.));
#1765=DIRECTION('',(0.,0.,1.));
#1766=DIRECTION('center_axis',(0.,-1.,0.));
#1767=DIRECTION('ref_axis',(1.,0.,0.));
#1768=DIRECTION('',(1.,0.,0.));
#1769=DIRECTION('',(0.,0.,1.));
#1770=DIRECTION('center_axis',(0.,0.,1.));
#1771=DIRECTION('ref_axis',(0.,1.,0.));
#1772=DIRECTION('center_axis',(0.,0.,-1.));
#1773=DIRECTION('ref_axis',(0.,1.,0.));
#1774=DIRECTION('center_axis',(0.,0.,1.));
#1775=DIRECTION('ref_axis',(1.,0.,0.));
#1776=DIRECTION('center_axis',(0.,0.,-1.));
#1777=DIRECTION('ref_axis',(1.,0.,0.));
#1778=DIRECTION('',(0.,0.,-1.));
#1779=DIRECTION('center_axis',(0.,0.,1.));
#1780=DIRECTION('ref_axis',(1.,0.,0.));
#1781=DIRECTION('center_axis',(0.,0.,-1.));
#1782=DIRECTION('ref_axis',(1.,0.,0.));
#1783=DIRECTION('',(0.,0.,-1.));
#1784=DIRECTION('center_axis',(1.,0.,0.));
#1785=DIRECTION('ref_axis',(0.,1.,0.));
#1786=DIRECTION('',(0.,0.,1.));
#1787=DIRECTION('',(0.,1.,0.));
#1788=DIRECTION('',(0.,0.,1.));
#1789=DIRECTION('center_axis',(0.,0.,1.));
#1790=DIRECTION('ref_axis',(-1.,0.,0.));
#1791=DIRECTION('center_axis',(0.,0.,-1.));
#1792=DIRECTION('ref_axis',(-1.,0.,0.));
#1793=DIRECTION('',(0.,0.,1.));
#1794=DIRECTION('center_axis',(0.,1.,0.));
#1795=DIRECTION('ref_axis',(-1.,0.,0.));
#1796=DIRECTION('',(-1.,0.,0.));
#1797=DIRECTION('',(0.,0.,1.));
#1798=DIRECTION('center_axis',(0.,0.,1.));
#1799=DIRECTION('ref_axis',(0.,-1.,0.));
#1800=DIRECTION('center_axis',(0.,0.,-1.));
#1801=DIRECTION('ref_axis',(0.,-1.,0.));
#1802=DIRECTION('',(0.,0.,1.));
#1803=DIRECTION('center_axis',(-1.,0.,0.));
#1804=DIRECTION('ref_axis',(0.,-1.,0.));
#1805=DIRECTION('',(0.,-1.,0.));
#1806=DIRECTION('',(0.,0.,1.));
#1807=DIRECTION('center_axis',(0.,0.,1.));
#1808=DIRECTION('ref_axis',(1.,0.,0.));
#1809=DIRECTION('center_axis',(0.,0.,-1.));
#1810=DIRECTION('ref_axis',(1.,0.,0.));
#1811=DIRECTION('',(0.,0.,1.));
#1812=DIRECTION('center_axis',(0.,-1.,0.));
#1813=DIRECTION('ref_axis',(1.,0.,0.));
#1814=DIRECTION('',(1.,0.,0.));
#1815=DIRECTION('',(0.,0.,1.));
#1816=DIRECTION('center_axis',(0.,0.,1.));
#1817=DIRECTION('ref_axis',(0.,1.,0.));
#1818=DIRECTION('center_axis',(0.,0.,-1.));
#1819=DIRECTION('ref_axis',(0.,1.,0.));
#1820=DIRECTION('center_axis',(1.,0.,0.));
#1821=DIRECTION('ref_axis',(0.,1.,0.));
#1822=DIRECTION('',(0.,0.,1.));
#1823=DIRECTION('',(0.,1.,0.));
#1824=DIRECTION('',(0.,0.,1.));
#1825=DIRECTION('center_axis',(0.,0.,1.));
#1826=DIRECTION('ref_axis',(-1.,0.,0.));
#1827=DIRECTION('center_axis',(0.,0.,-1.));
#1828=DIRECTION('ref_axis',(-1.,0.,0.));
#1829=DIRECTION('',(0.,0.,1.));
#1830=DIRECTION('center_axis',(0.,1.,0.));
#1831=DIRECTION('ref_axis',(-1.,0.,0.));
#1832=DIRECTION('',(-1.,0.,0.));
#1833=DIRECTION('',(0.,0.,1.));
#1834=DIRECTION('center_axis',(0.,0.,1.));
#1835=DIRECTION('ref_axis',(0.,-1.,0.));
#1836=DIRECTION('center_axis',(0.,0.,-1.));
#1837=DIRECTION('ref_axis',(0.,-1.,0.));
#1838=DIRECTION('',(0.,0.,1.));
#1839=DIRECTION('center_axis',(-1.,0.,0.));
#1840=DIRECTION('ref_axis',(0.,-1.,0.));
#1841=DIRECTION('',(0.,-1.,0.));
#1842=DIRECTION('',(0.,0.,1.));
#1843=DIRECTION('center_axis',(0.,0.,1.));
#1844=DIRECTION('ref_axis',(1.,0.,0.));
#1845=DIRECTION('center_axis',(0.,0.,-1.));
#1846=DIRECTION('ref_axis',(1.,0.,0.));
#1847=DIRECTION('',(0.,0.,1.));
#1848=DIRECTION('center_axis',(0.,-1.,0.));
#1849=DIRECTION('ref_axis',(1.,0.,0.));
#1850=DIRECTION('',(1.,0.,0.));
#1851=DIRECTION('',(0.,0.,1.));
#1852=DIRECTION('center_axis',(0.,0.,1.));
#1853=DIRECTION('ref_axis',(0.,1.,0.));
#1854=DIRECTION('center_axis',(0.,0.,-1.));
#1855=DIRECTION('ref_axis',(0.,1.,0.));
#1856=DIRECTION('center_axis',(-1.,0.,0.));
#1857=DIRECTION('ref_axis',(0.,-1.,0.));
#1858=DIRECTION('',(0.,0.,1.));
#1859=DIRECTION('',(0.,-1.,0.));
#1860=DIRECTION('',(0.,0.,1.));
#1861=DIRECTION('center_axis',(0.,-1.,0.));
#1862=DIRECTION('ref_axis',(1.,0.,0.));
#1863=DIRECTION('',(1.,0.,0.));
#1864=DIRECTION('',(0.,0.,1.));
#1865=DIRECTION('center_axis',(1.,0.,0.));
#1866=DIRECTION('ref_axis',(0.,1.,0.));
#1867=DIRECTION('',(0.,1.,0.));
#1868=DIRECTION('',(0.,0.,1.));
#1869=DIRECTION('center_axis',(0.,-1.,0.));
#1870=DIRECTION('ref_axis',(1.,0.,0.));
#1871=DIRECTION('',(1.,0.,0.));
#1872=DIRECTION('center_axis',(0.,-1.,0.));
#1873=DIRECTION('ref_axis',(1.,0.,0.));
#1874=DIRECTION('',(1.,0.,0.));
#1875=DIRECTION('center_axis',(0.,0.,1.));
#1876=DIRECTION('ref_axis',(1.,0.,0.));
#1877=CARTESIAN_POINT('',(0.,0.,0.));
#1878=CARTESIAN_POINT('Origin',(66.731,-85.45,0.));
#1879=CARTESIAN_POINT('',(71.731,-85.45,1.5));
#1880=CARTESIAN_POINT('',(66.731,-90.45,1.5));
#1881=CARTESIAN_POINT('Origin',(66.731,-85.45,1.5));
#1882=CARTESIAN_POINT('',(66.731,-90.45,0.));
#1883=CARTESIAN_POINT('',(66.731,-90.45,0.));
#1884=CARTESIAN_POINT('',(71.731,-85.45,0.));
#1885=CARTESIAN_POINT('Origin',(66.731,-85.45,0.));
#1886=CARTESIAN_POINT('',(71.731,-85.45,0.));
#1887=CARTESIAN_POINT('Origin',(71.731,-90.45,0.));
#1888=CARTESIAN_POINT('',(71.731,2.55000000000001,0.));
#1889=CARTESIAN_POINT('',(71.731,-90.45,0.));
#1890=CARTESIAN_POINT('',(71.731,2.55000000000001,1.5));
#1891=CARTESIAN_POINT('',(71.731,2.55000000000001,0.));
#1892=CARTESIAN_POINT('',(71.731,-90.45,1.5));
#1893=CARTESIAN_POINT('Origin',(30.731,-41.45,0.));
#1894=CARTESIAN_POINT('',(26.657,-90.45,0.));
#1895=CARTESIAN_POINT('',(-10.269,-90.45,0.));
#1896=CARTESIAN_POINT('',(26.657,-59.45,0.));
#1897=CARTESIAN_POINT('',(26.657,-90.45,0.));
#1898=CARTESIAN_POINT('',(8.157,-59.45,0.));
#1899=CARTESIAN_POINT('',(26.657,-59.45,0.));
#1900=CARTESIAN_POINT('',(8.157,-90.45,0.));
#1901=CARTESIAN_POINT('',(8.157,-59.45,0.));
#1902=CARTESIAN_POINT('',(-5.269,-90.45,0.));
#1903=CARTESIAN_POINT('',(-10.269,-90.45,0.));
#1904=CARTESIAN_POINT('',(-10.269,-85.45,0.));
#1905=CARTESIAN_POINT('Origin',(-5.269,-85.45,0.));
#1906=CARTESIAN_POINT('',(-10.269,2.55000000000001,0.));
#1907=CARTESIAN_POINT('',(-10.269,7.55000000000001,0.));
#1908=CARTESIAN_POINT('',(-5.269,7.55000000000001,0.));
#1909=CARTESIAN_POINT('Origin',(-5.269,2.55000000000001,0.));
#1910=CARTESIAN_POINT('',(66.731,7.55000000000001,0.));
#1911=CARTESIAN_POINT('',(71.731,7.55000000000001,0.));
#1912=CARTESIAN_POINT('Origin',(66.731,2.55000000000001,0.));
#1913=CARTESIAN_POINT('',(2.525,-41.125,0.));
#1914=CARTESIAN_POINT('',(3.025,-40.625,0.));
#1915=CARTESIAN_POINT('Origin',(3.025,-41.125,0.));
#1916=CARTESIAN_POINT('',(2.525,-54.125,0.));
#1917=CARTESIAN_POINT('',(2.525,-41.125,0.));
#1918=CARTESIAN_POINT('',(3.025,-54.625,0.));
#1919=CARTESIAN_POINT('Origin',(3.025,-54.125,0.));
#1920=CARTESIAN_POINT('',(16.025,-54.625,0.));
#1921=CARTESIAN_POINT('',(3.025,-54.625,0.));
#1922=CARTESIAN_POINT('',(16.525,-54.125,0.));
#1923=CARTESIAN_POINT('Origin',(16.025,-54.125,0.));
#1924=CARTESIAN_POINT('',(16.525,-41.125,0.));
#1925=CARTESIAN_POINT('',(16.525,-41.125,0.));
#1926=CARTESIAN_POINT('',(16.025,-40.625,0.));
#1927=CARTESIAN_POINT('Origin',(16.025,-41.125,0.));
#1928=CARTESIAN_POINT('',(3.025,-40.625,0.));
#1929=CARTESIAN_POINT('',(40.625,-22.075,0.));
#1930=CARTESIAN_POINT('',(41.125,-21.575,0.));
#1931=CARTESIAN_POINT('Origin',(41.125,-22.075,0.));
#1932=CARTESIAN_POINT('',(40.625,-35.075,0.));
#1933=CARTESIAN_POINT('',(40.625,-22.075,0.));
#1934=CARTESIAN_POINT('',(41.125,-35.575,0.));
#1935=CARTESIAN_POINT('Origin',(41.125,-35.075,0.));
#1936=CARTESIAN_POINT('',(54.125,-35.575,0.));
#1937=CARTESIAN_POINT('',(41.125,-35.575,0.));
#1938=CARTESIAN_POINT('',(54.625,-35.075,0.));
#1939=CARTESIAN_POINT('Origin',(54.125,-35.075,0.));
#1940=CARTESIAN_POINT('',(54.625,-22.075,0.));
#1941=CARTESIAN_POINT('',(54.625,-22.075,0.));
#1942=CARTESIAN_POINT('',(54.125,-21.575,0.));
#1943=CARTESIAN_POINT('Origin',(54.125,-22.075,0.));
#1944=CARTESIAN_POINT('',(41.125,-21.575,0.));
#1945=CARTESIAN_POINT('',(65.031,2.55000000000001,0.));
#1946=CARTESIAN_POINT('Origin',(66.731,2.55000000000001,0.));
#1947=CARTESIAN_POINT('',(-6.969,-85.45,0.));
#1948=CARTESIAN_POINT('Origin',(-5.269,-85.45,0.));
#1949=CARTESIAN_POINT('',(2.525,-22.075,0.));
#1950=CARTESIAN_POINT('',(3.025,-21.575,0.));
#1951=CARTESIAN_POINT('Origin',(3.025,-22.075,0.));
#1952=CARTESIAN_POINT('',(2.525,-35.075,0.));
#1953=CARTESIAN_POINT('',(2.525,-22.075,0.));
#1954=CARTESIAN_POINT('',(3.025,-35.575,0.));
#1955=CARTESIAN_POINT('Origin',(3.025,-35.075,0.));
#1956=CARTESIAN_POINT('',(16.025,-35.575,0.));
#1957=CARTESIAN_POINT('',(3.025,-35.575,0.));
#1958=CARTESIAN_POINT('',(16.525,-35.075,0.));
#1959=CARTESIAN_POINT('Origin',(16.025,-35.075,0.));
#1960=CARTESIAN_POINT('',(16.525,-22.075,0.));
#1961=CARTESIAN_POINT('',(16.525,-22.075,0.));
#1962=CARTESIAN_POINT('',(16.025,-21.575,0.));
#1963=CARTESIAN_POINT('Origin',(16.025,-22.075,0.));
#1964=CARTESIAN_POINT('',(3.025,-21.575,0.));
#1965=CARTESIAN_POINT('',(21.575,-22.075,0.));
#1966=CARTESIAN_POINT('',(22.075,-21.575,0.));
#1967=CARTESIAN_POINT('Origin',(22.075,-22.075,0.));
#1968=CARTESIAN_POINT('',(21.575,-35.075,0.));
#1969=CARTESIAN_POINT('',(21.575,-22.075,0.));
#1970=CARTESIAN_POINT('',(22.075,-35.575,0.));
#1971=CARTESIAN_POINT('Origin',(22.075,-35.075,0.));
#1972=CARTESIAN_POINT('',(35.075,-35.575,0.));
#1973=CARTESIAN_POINT('',(22.075,-35.575,0.));
#1974=CARTESIAN_POINT('',(35.575,-35.075,0.));
#1975=CARTESIAN_POINT('Origin',(35.075,-35.075,0.));
#1976=CARTESIAN_POINT('',(35.575,-22.075,0.));
#1977=CARTESIAN_POINT('',(35.575,-22.075,0.));
#1978=CARTESIAN_POINT('',(35.075,-21.575,0.));
#1979=CARTESIAN_POINT('Origin',(35.075,-22.075,0.));
#1980=CARTESIAN_POINT('',(22.075,-21.575,0.));
#1981=CARTESIAN_POINT('',(-6.969,2.55000000000001,0.));
#1982=CARTESIAN_POINT('Origin',(-5.269,2.55000000000001,0.));
#1983=CARTESIAN_POINT('',(65.031,-85.45,0.));
#1984=CARTESIAN_POINT('Origin',(66.731,-85.45,0.));
#1985=CARTESIAN_POINT('',(21.575,-41.125,0.));
#1986=CARTESIAN_POINT('',(22.075,-40.625,0.));
#1987=CARTESIAN_POINT('Origin',(22.075,-41.125,0.));
#1988=CARTESIAN_POINT('',(21.575,-54.125,0.));
#1989=CARTESIAN_POINT('',(21.575,-41.125,0.));
#1990=CARTESIAN_POINT('',(22.075,-54.625,0.));
#1991=CARTESIAN_POINT('Origin',(22.075,-54.125,0.));
#1992=CARTESIAN_POINT('',(35.075,-54.625,0.));
#1993=CARTESIAN_POINT('',(22.075,-54.625,0.));
#1994=CARTESIAN_POINT('',(35.575,-54.125,0.));
#1995=CARTESIAN_POINT('Origin',(35.075,-54.125,0.));
#1996=CARTESIAN_POINT('',(35.575,-41.125,0.));
#1997=CARTESIAN_POINT('',(35.575,-41.125,0.));
#1998=CARTESIAN_POINT('',(35.075,-40.625,0.));
#1999=CARTESIAN_POINT('Origin',(35.075,-41.125,0.));
#2000=CARTESIAN_POINT('',(22.075,-40.625,0.));
#2001=CARTESIAN_POINT('',(40.625,-41.125,0.));
#2002=CARTESIAN_POINT('',(41.125,-40.625,0.));
#2003=CARTESIAN_POINT('Origin',(41.125,-41.125,0.));
#2004=CARTESIAN_POINT('',(40.625,-54.125,0.));
#2005=CARTESIAN_POINT('',(40.625,-41.125,0.));
#2006=CARTESIAN_POINT('',(41.125,-54.625,0.));
#2007=CARTESIAN_POINT('Origin',(41.125,-54.125,0.));
#2008=CARTESIAN_POINT('',(54.125,-54.625,0.));
#2009=CARTESIAN_POINT('',(41.125,-54.625,0.));
#2010=CARTESIAN_POINT('',(54.625,-54.125,0.));
#2011=CARTESIAN_POINT('Origin',(54.125,-54.125,0.));
#2012=CARTESIAN_POINT('',(54.625,-41.125,0.));
#2013=CARTESIAN_POINT('',(54.625,-41.125,0.));
#2014=CARTESIAN_POINT('',(54.125,-40.625,0.));
#2015=CARTESIAN_POINT('Origin',(54.125,-41.125,0.));
#2016=CARTESIAN_POINT('',(41.125,-40.625,0.));
#2017=CARTESIAN_POINT('Origin',(66.731,2.55000000000001,0.));
#2018=CARTESIAN_POINT('',(66.731,7.55000000000001,1.5));
#2019=CARTESIAN_POINT('Origin',(66.731,2.55000000000001,1.5));
#2020=CARTESIAN_POINT('',(66.731,7.55000000000001,0.));
#2021=CARTESIAN_POINT('Origin',(71.731,7.55000000000001,0.));
#2022=CARTESIAN_POINT('',(-5.269,7.55000000000001,1.5));
#2023=CARTESIAN_POINT('',(-5.269,7.55000000000001,0.));
#2024=CARTESIAN_POINT('',(71.731,7.55000000000001,1.5));
#2025=CARTESIAN_POINT('Origin',(-5.269,2.55000000000001,0.));
#2026=CARTESIAN_POINT('',(-10.269,2.55000000000001,1.5));
#2027=CARTESIAN_POINT('Origin',(-5.269,2.55000000000001,1.5));
#2028=CARTESIAN_POINT('',(-10.269,2.55000000000001,0.));
#2029=CARTESIAN_POINT('Origin',(-10.269,7.55000000000001,0.));
#2030=CARTESIAN_POINT('',(-10.269,-85.45,1.5));
#2031=CARTESIAN_POINT('',(-10.269,-85.45,0.));
#2032=CARTESIAN_POINT('',(-10.269,7.55000000000001,1.5));
#2033=CARTESIAN_POINT('Origin',(-5.269,-85.45,0.));
#2034=CARTESIAN_POINT('',(-5.269,-90.45,1.5));
#2035=CARTESIAN_POINT('Origin',(-5.269,-85.45,1.5));
#2036=CARTESIAN_POINT('',(-5.269,-90.45,0.));
#2037=CARTESIAN_POINT('Origin',(40.625,-54.125,0.));
#2038=CARTESIAN_POINT('',(40.625,-41.125,1.5));
#2039=CARTESIAN_POINT('',(40.625,-41.125,0.));
#2040=CARTESIAN_POINT('',(40.625,-54.125,1.5));
#2041=CARTESIAN_POINT('',(40.625,-41.125,1.5));
#2042=CARTESIAN_POINT('',(40.625,-54.125,0.));
#2043=CARTESIAN_POINT('Origin',(41.125,-54.125,0.));
#2044=CARTESIAN_POINT('',(41.125,-54.625,1.5));
#2045=CARTESIAN_POINT('Origin',(41.125,-54.125,1.5));
#2046=CARTESIAN_POINT('',(41.125,-54.625,0.));
#2047=CARTESIAN_POINT('Origin',(54.125,-54.625,0.));
#2048=CARTESIAN_POINT('',(54.125,-54.625,1.5));
#2049=CARTESIAN_POINT('',(41.125,-54.625,1.5));
#2050=CARTESIAN_POINT('',(54.125,-54.625,0.));
#2051=CARTESIAN_POINT('Origin',(54.125,-54.125,0.));
#2052=CARTESIAN_POINT('',(54.625,-54.125,1.5));
#2053=CARTESIAN_POINT('Origin',(54.125,-54.125,1.5));
#2054=CARTESIAN_POINT('',(54.625,-54.125,0.));
#2055=CARTESIAN_POINT('Origin',(54.625,-41.125,0.));
#2056=CARTESIAN_POINT('',(54.625,-41.125,1.5));
#2057=CARTESIAN_POINT('',(54.625,-41.125,1.5));
#2058=CARTESIAN_POINT('',(54.625,-41.125,0.));
#2059=CARTESIAN_POINT('Origin',(54.125,-41.125,0.));
#2060=CARTESIAN_POINT('',(54.125,-40.625,1.5));
#2061=CARTESIAN_POINT('Origin',(54.125,-41.125,1.5));
#2062=CARTESIAN_POINT('',(54.125,-40.625,0.));
#2063=CARTESIAN_POINT('Origin',(41.125,-40.625,0.));
#2064=CARTESIAN_POINT('',(41.125,-40.625,1.5));
#2065=CARTESIAN_POINT('',(41.125,-40.625,1.5));
#2066=CARTESIAN_POINT('',(41.125,-40.625,0.));
#2067=CARTESIAN_POINT('Origin',(41.125,-41.125,0.));
#2068=CARTESIAN_POINT('Origin',(41.125,-41.125,1.5));
#2069=CARTESIAN_POINT('Origin',(21.575,-54.125,0.));
#2070=CARTESIAN_POINT('',(21.575,-41.125,1.5));
#2071=CARTESIAN_POINT('',(21.575,-41.125,0.));
#2072=CARTESIAN_POINT('',(21.575,-54.125,1.5));
#2073=CARTESIAN_POINT('',(21.575,-41.125,1.5));
#2074=CARTESIAN_POINT('',(21.575,-54.125,0.));
#2075=CARTESIAN_POINT('Origin',(22.075,-54.125,0.));
#2076=CARTESIAN_POINT('',(22.075,-54.625,1.5));
#2077=CARTESIAN_POINT('Origin',(22.075,-54.125,1.5));
#2078=CARTESIAN_POINT('',(22.075,-54.625,0.));
#2079=CARTESIAN_POINT('Origin',(35.075,-54.625,0.));
#2080=CARTESIAN_POINT('',(35.075,-54.625,1.5));
#2081=CARTESIAN_POINT('',(22.075,-54.625,1.5));
#2082=CARTESIAN_POINT('',(35.075,-54.625,0.));
#2083=CARTESIAN_POINT('Origin',(35.075,-54.125,0.));
#2084=CARTESIAN_POINT('',(35.575,-54.125,1.5));
#2085=CARTESIAN_POINT('Origin',(35.075,-54.125,1.5));
#2086=CARTESIAN_POINT('',(35.575,-54.125,0.));
#2087=CARTESIAN_POINT('Origin',(35.575,-41.125,0.));
#2088=CARTESIAN_POINT('',(35.575,-41.125,1.5));
#2089=CARTESIAN_POINT('',(35.575,-41.125,1.5));
#2090=CARTESIAN_POINT('',(35.575,-41.125,0.));
#2091=CARTESIAN_POINT('Origin',(35.075,-41.125,0.));
#2092=CARTESIAN_POINT('',(35.075,-40.625,1.5));
#2093=CARTESIAN_POINT('Origin',(35.075,-41.125,1.5));
#2094=CARTESIAN_POINT('',(35.075,-40.625,0.));
#2095=CARTESIAN_POINT('Origin',(22.075,-40.625,0.));
#2096=CARTESIAN_POINT('',(22.075,-40.625,1.5));
#2097=CARTESIAN_POINT('',(22.075,-40.625,1.5));
#2098=CARTESIAN_POINT('',(22.075,-40.625,0.));
#2099=CARTESIAN_POINT('Origin',(22.075,-41.125,0.));
#2100=CARTESIAN_POINT('Origin',(22.075,-41.125,1.5));
#2101=CARTESIAN_POINT('Origin',(66.731,-85.45,0.));
#2102=CARTESIAN_POINT('',(65.031,-85.45,1.5));
#2103=CARTESIAN_POINT('Origin',(66.731,-85.45,1.5));
#2104=CARTESIAN_POINT('',(65.031,-85.45,0.));
#2105=CARTESIAN_POINT('Origin',(-5.269,2.55000000000001,0.));
#2106=CARTESIAN_POINT('',(-6.969,2.55000000000001,1.5));
#2107=CARTESIAN_POINT('Origin',(-5.269,2.55000000000001,1.5));
#2108=CARTESIAN_POINT('',(-6.969,2.55000000000001,0.));
#2109=CARTESIAN_POINT('Origin',(21.575,-35.075,0.));
#2110=CARTESIAN_POINT('',(21.575,-22.075,1.5));
#2111=CARTESIAN_POINT('',(21.575,-22.075,0.));
#2112=CARTESIAN_POINT('',(21.575,-35.075,1.5));
#2113=CARTESIAN_POINT('',(21.575,-22.075,1.5));
#2114=CARTESIAN_POINT('',(21.575,-35.075,0.));
#2115=CARTESIAN_POINT('Origin',(22.075,-35.075,0.));
#2116=CARTESIAN_POINT('',(22.075,-35.575,1.5));
#2117=CARTESIAN_POINT('Origin',(22.075,-35.075,1.5));
#2118=CARTESIAN_POINT('',(22.075,-35.575,0.));
#2119=CARTESIAN_POINT('Origin',(35.075,-35.575,0.));
#2120=CARTESIAN_POINT('',(35.075,-35.575,1.5));
#2121=CARTESIAN_POINT('',(22.075,-35.575,1.5));
#2122=CARTESIAN_POINT('',(35.075,-35.575,0.));
#2123=CARTESIAN_POINT('Origin',(35.075,-35.075,0.));
#2124=CARTESIAN_POINT('',(35.575,-35.075,1.5));
#2125=CARTESIAN_POINT('Origin',(35.075,-35.075,1.5));
#2126=CARTESIAN_POINT('',(35.575,-35.075,0.));
#2127=CARTESIAN_POINT('Origin',(35.575,-22.075,0.));
#2128=CARTESIAN_POINT('',(35.575,-22.075,1.5));
#2129=CARTESIAN_POINT('',(35.575,-22.075,1.5));
#2130=CARTESIAN_POINT('',(35.575,-22.075,0.));
#2131=CARTESIAN_POINT('Origin',(35.075,-22.075,0.));
#2132=CARTESIAN_POINT('',(35.075,-21.575,1.5));
#2133=CARTESIAN_POINT('Origin',(35.075,-22.075,1.5));
#2134=CARTESIAN_POINT('',(35.075,-21.575,0.));
#2135=CARTESIAN_POINT('Origin',(22.075,-21.575,0.));
#2136=CARTESIAN_POINT('',(22.075,-21.575,1.5));
#2137=CARTESIAN_POINT('',(22.075,-21.575,1.5));
#2138=CARTESIAN_POINT('',(22.075,-21.575,0.));
#2139=CARTESIAN_POINT('Origin',(22.075,-22.075,0.));
#2140=CARTESIAN_POINT('Origin',(22.075,-22.075,1.5));
#2141=CARTESIAN_POINT('Origin',(2.525,-35.075,0.));
#2142=CARTESIAN_POINT('',(2.525,-22.075,1.5));
#2143=CARTESIAN_POINT('',(2.525,-22.075,0.));
#2144=CARTESIAN_POINT('',(2.525,-35.075,1.5));
#2145=CARTESIAN_POINT('',(2.525,-22.075,1.5));
#2146=CARTESIAN_POINT('',(2.525,-35.075,0.));
#2147=CARTESIAN_POINT('Origin',(3.025,-35.075,0.));
#2148=CARTESIAN_POINT('',(3.025,-35.575,1.5));
#2149=CARTESIAN_POINT('Origin',(3.025,-35.075,1.5));
#2150=CARTESIAN_POINT('',(3.025,-35.575,0.));
#2151=CARTESIAN_POINT('Origin',(16.025,-35.575,0.));
#2152=CARTESIAN_POINT('',(16.025,-35.575,1.5));
#2153=CARTESIAN_POINT('',(3.025,-35.575,1.5));
#2154=CARTESIAN_POINT('',(16.025,-35.575,0.));
#2155=CARTESIAN_POINT('Origin',(16.025,-35.075,0.));
#2156=CARTESIAN_POINT('',(16.525,-35.075,1.5));
#2157=CARTESIAN_POINT('Origin',(16.025,-35.075,1.5));
#2158=CARTESIAN_POINT('',(16.525,-35.075,0.));
#2159=CARTESIAN_POINT('Origin',(16.525,-22.075,0.));
#2160=CARTESIAN_POINT('',(16.525,-22.075,1.5));
#2161=CARTESIAN_POINT('',(16.525,-22.075,1.5));
#2162=CARTESIAN_POINT('',(16.525,-22.075,0.));
#2163=CARTESIAN_POINT('Origin',(16.025,-22.075,0.));
#2164=CARTESIAN_POINT('',(16.025,-21.575,1.5));
#2165=CARTESIAN_POINT('Origin',(16.025,-22.075,1.5));
#2166=CARTESIAN_POINT('',(16.025,-21.575,0.));
#2167=CARTESIAN_POINT('Origin',(3.025,-21.575,0.));
#2168=CARTESIAN_POINT('',(3.025,-21.575,1.5));
#2169=CARTESIAN_POINT('',(3.025,-21.575,1.5));
#2170=CARTESIAN_POINT('',(3.025,-21.575,0.));
#2171=CARTESIAN_POINT('Origin',(3.025,-22.075,0.));
#2172=CARTESIAN_POINT('Origin',(3.025,-22.075,1.5));
#2173=CARTESIAN_POINT('Origin',(-5.269,-85.45,0.));
#2174=CARTESIAN_POINT('',(-6.969,-85.45,1.5));
#2175=CARTESIAN_POINT('Origin',(-5.269,-85.45,1.5));
#2176=CARTESIAN_POINT('',(-6.969,-85.45,0.));
#2177=CARTESIAN_POINT('Origin',(66.731,2.55000000000001,0.));
#2178=CARTESIAN_POINT('',(65.031,2.55000000000001,1.5));
#2179=CARTESIAN_POINT('Origin',(66.731,2.55000000000001,1.5));
#2180=CARTESIAN_POINT('',(65.031,2.55000000000001,0.));
#2181=CARTESIAN_POINT('Origin',(40.625,-35.075,0.));
#2182=CARTESIAN_POINT('',(40.625,-22.075,1.5));
#2183=CARTESIAN_POINT('',(40.625,-22.075,0.));
#2184=CARTESIAN_POINT('',(40.625,-35.075,1.5));
#2185=CARTESIAN_POINT('',(40.625,-22.075,1.5));
#2186=CARTESIAN_POINT('',(40.625,-35.075,0.));
#2187=CARTESIAN_POINT('Origin',(41.125,-35.075,0.));
#2188=CARTESIAN_POINT('',(41.125,-35.575,1.5));
#2189=CARTESIAN_POINT('Origin',(41.125,-35.075,1.5));
#2190=CARTESIAN_POINT('',(41.125,-35.575,0.));
#2191=CARTESIAN_POINT('Origin',(54.125,-35.575,0.));
#2192=CARTESIAN_POINT('',(54.125,-35.575,1.5));
#2193=CARTESIAN_POINT('',(41.125,-35.575,1.5));
#2194=CARTESIAN_POINT('',(54.125,-35.575,0.));
#2195=CARTESIAN_POINT('Origin',(54.125,-35.075,0.));
#2196=CARTESIAN_POINT('',(54.625,-35.075,1.5));
#2197=CARTESIAN_POINT('Origin',(54.125,-35.075,1.5));
#2198=CARTESIAN_POINT('',(54.625,-35.075,0.));
#2199=CARTESIAN_POINT('Origin',(54.625,-22.075,0.));
#2200=CARTESIAN_POINT('',(54.625,-22.075,1.5));
#2201=CARTESIAN_POINT('',(54.625,-22.075,1.5));
#2202=CARTESIAN_POINT('',(54.625,-22.075,0.));
#2203=CARTESIAN_POINT('Origin',(54.125,-22.075,0.));
#2204=CARTESIAN_POINT('',(54.125,-21.575,1.5));
#2205=CARTESIAN_POINT('Origin',(54.125,-22.075,1.5));
#2206=CARTESIAN_POINT('',(54.125,-21.575,0.));
#2207=CARTESIAN_POINT('Origin',(41.125,-21.575,0.));
#2208=CARTESIAN_POINT('',(41.125,-21.575,1.5));
#2209=CARTESIAN_POINT('',(41.125,-21.575,1.5));
#2210=CARTESIAN_POINT('',(41.125,-21.575,0.));
#2211=CARTESIAN_POINT('Origin',(41.125,-22.075,0.));
#2212=CARTESIAN_POINT('Origin',(41.125,-22.075,1.5));
#2213=CARTESIAN_POINT('Origin',(2.525,-54.125,0.));
#2214=CARTESIAN_POINT('',(2.525,-41.125,1.5));
#2215=CARTESIAN_POINT('',(2.525,-41.125,0.));
#2216=CARTESIAN_POINT('',(2.525,-54.125,1.5));
#2217=CARTESIAN_POINT('',(2.525,-41.125,1.5));
#2218=CARTESIAN_POINT('',(2.525,-54.125,0.));
#2219=CARTESIAN_POINT('Origin',(3.025,-54.125,0.));
#2220=CARTESIAN_POINT('',(3.025,-54.625,1.5));
#2221=CARTESIAN_POINT('Origin',(3.025,-54.125,1.5));
#2222=CARTESIAN_POINT('',(3.025,-54.625,0.));
#2223=CARTESIAN_POINT('Origin',(16.025,-54.625,0.));
#2224=CARTESIAN_POINT('',(16.025,-54.625,1.5));
#2225=CARTESIAN_POINT('',(3.025,-54.625,1.5));
#2226=CARTESIAN_POINT('',(16.025,-54.625,0.));
#2227=CARTESIAN_POINT('Origin',(16.025,-54.125,0.));
#2228=CARTESIAN_POINT('',(16.525,-54.125,1.5));
#2229=CARTESIAN_POINT('Origin',(16.025,-54.125,1.5));
#2230=CARTESIAN_POINT('',(16.525,-54.125,0.));
#2231=CARTESIAN_POINT('Origin',(16.525,-41.125,0.));
#2232=CARTESIAN_POINT('',(16.525,-41.125,1.5));
#2233=CARTESIAN_POINT('',(16.525,-41.125,1.5));
#2234=CARTESIAN_POINT('',(16.525,-41.125,0.));
#2235=CARTESIAN_POINT('Origin',(16.025,-41.125,0.));
#2236=CARTESIAN_POINT('',(16.025,-40.625,1.5));
#2237=CARTESIAN_POINT('Origin',(16.025,-41.125,1.5));
#2238=CARTESIAN_POINT('',(16.025,-40.625,0.));
#2239=CARTESIAN_POINT('Origin',(3.025,-40.625,0.));
#2240=CARTESIAN_POINT('',(3.025,-40.625,1.5));
#2241=CARTESIAN_POINT('',(3.025,-40.625,1.5));
#2242=CARTESIAN_POINT('',(3.025,-40.625,0.));
#2243=CARTESIAN_POINT('Origin',(3.025,-41.125,0.));
#2244=CARTESIAN_POINT('Origin',(3.025,-41.125,1.5));
#2245=CARTESIAN_POINT('Origin',(26.657,-59.45,0.));
#2246=CARTESIAN_POINT('',(26.657,-90.45,1.5));
#2247=CARTESIAN_POINT('',(26.657,-90.45,0.));
#2248=CARTESIAN_POINT('',(26.657,-59.45,1.5));
#2249=CARTESIAN_POINT('',(26.657,-90.45,1.5));
#2250=CARTESIAN_POINT('',(26.657,-59.45,0.));
#2251=CARTESIAN_POINT('Origin',(8.157,-59.45,0.));
#2252=CARTESIAN_POINT('',(8.157,-59.45,1.5));
#2253=CARTESIAN_POINT('',(26.657,-59.45,1.5));
#2254=CARTESIAN_POINT('',(8.157,-59.45,0.));
#2255=CARTESIAN_POINT('Origin',(8.157,-90.45,0.));
#2256=CARTESIAN_POINT('',(8.157,-90.45,1.5));
#2257=CARTESIAN_POINT('',(8.157,-59.45,1.5));
#2258=CARTESIAN_POINT('',(8.157,-90.45,0.));
#2259=CARTESIAN_POINT('Origin',(-10.269,-90.45,0.));
#2260=CARTESIAN_POINT('',(-10.269,-90.45,1.5));
#2261=CARTESIAN_POINT('Origin',(26.657,-90.45,0.));
#2262=CARTESIAN_POINT('',(-10.269,-90.45,1.5));
#2263=CARTESIAN_POINT('Origin',(30.731,-41.45,1.5));
#2264=UNCERTAINTY_MEASURE_WITH_UNIT(LENGTH_MEASURE(0.01),#2268,
'DISTANCE_ACCURACY_VALUE',
'Maximum model space distance between geometric entities at asserted c
onnectivities');
#2265=UNCERTAINTY_MEASURE_WITH_UNIT(LENGTH_MEASURE(0.01),#2268,
'DISTANCE_ACCURACY_VALUE',
'Maximum model space distance between geometric entities at asserted c
onnectivities');
#2266=(
GEOMETRIC_REPRESENTATION_CONTEXT(3)
GLOBAL_UNCERTAINTY_ASSIGNED_CONTEXT((#2264))
GLOBAL_UNIT_ASSIGNED_CONTEXT((#2268,#2270,#2271))
REPRESENTATION_CONTEXT('','3D')
);
#2267=(
GEOMETRIC_REPRESENTATION_CONTEXT(3)
GLOBAL_UNCERTAINTY_ASSIGNED_CONTEXT((#2265))
GLOBAL_UNIT_ASSIGNED_CONTEXT((#2268,#2270,#2271))
REPRESENTATION_CONTEXT('','3D')
);
#2268=(
LENGTH_UNIT()
NAMED_UNIT(*)
SI_UNIT(.MILLI.,.METRE.)
);
#2269=(
LENGTH_UNIT()
NAMED_UNIT(*)
SI_UNIT($,.METRE.)
);
#2270=(
NAMED_UNIT(*)
PLANE_ANGLE_UNIT()
SI_UNIT($,.RADIAN.)
);
#2271=(
NAMED_UNIT(*)
SI_UNIT($,.STERADIAN.)
SOLID_ANGLE_UNIT()
);
#2272=SHAPE_DEFINITION_REPRESENTATION(#2273,#2274);
#2273=PRODUCT_DEFINITION_SHAPE('',$,#2276);
#2274=SHAPE_REPRESENTATION('',(#1356),#2266);
#2275=PRODUCT_DEFINITION_CONTEXT('part definition',#2280,'design');
#2276=PRODUCT_DEFINITION('2025-11-23-21-09-51-988','MacroPadCaseTop',#2277,
#2275);
#2277=PRODUCT_DEFINITION_FORMATION('',$,#2282);
#2278=PRODUCT_RELATED_PRODUCT_CATEGORY('MacroPadCaseTop',
'MacroPadCaseTop',(#2282));
#2279=APPLICATION_PROTOCOL_DEFINITION('international standard',
'automotive_design',2009,#2280);
#2280=APPLICATION_CONTEXT(
'Core Data for Automotive Mechanical Design Process');
#2281=PRODUCT_CONTEXT('part definition',#2280,'mechanical');
#2282=PRODUCT('2025-11-23-21-09-51-988','MacroPadCaseTop',$,(#2281));
#2283=PRESENTATION_STYLE_ASSIGNMENT((#2284));
#2284=SURFACE_STYLE_USAGE(.BOTH.,#2285);
#2285=SURFACE_SIDE_STYLE('',(#2286));
#2286=SURFACE_STYLE_FILL_AREA(#2287);
#2287=FILL_AREA_STYLE('Steel - Satin',(#2288));
#2288=FILL_AREA_STYLE_COLOUR('Steel - Satin',#2289);
#2289=COLOUR_RGB('Steel - Satin',0.627450980392157,0.627450980392157,0.627450980392157);
ENDSEC;
END-ISO-10303-21;
